%TF.GenerationSoftware,KiCad,Pcbnew,8.0.8*%
%TF.CreationDate,2026-01-07T21:13:01+09:00*%
%TF.ProjectId,emergency_board_NHK2026,656d6572-6765-46e6-9379-5f626f617264,rev?*%
%TF.SameCoordinates,Original*%
%TF.FileFunction,Soldermask,Top*%
%TF.FilePolarity,Negative*%
%FSLAX46Y46*%
G04 Gerber Fmt 4.6, Leading zero omitted, Abs format (unit mm)*
G04 Created by KiCad (PCBNEW 8.0.8) date 2026-01-07 21:13:01*
%MOMM*%
%LPD*%
G01*
G04 APERTURE LIST*
G04 Aperture macros list*
%AMRoundRect*
0 Rectangle with rounded corners*
0 $1 Rounding radius*
0 $2 $3 $4 $5 $6 $7 $8 $9 X,Y pos of 4 corners*
0 Add a 4 corners polygon primitive as box body*
4,1,4,$2,$3,$4,$5,$6,$7,$8,$9,$2,$3,0*
0 Add four circle primitives for the rounded corners*
1,1,$1+$1,$2,$3*
1,1,$1+$1,$4,$5*
1,1,$1+$1,$6,$7*
1,1,$1+$1,$8,$9*
0 Add four rect primitives between the rounded corners*
20,1,$1+$1,$2,$3,$4,$5,0*
20,1,$1+$1,$4,$5,$6,$7,0*
20,1,$1+$1,$6,$7,$8,$9,0*
20,1,$1+$1,$8,$9,$2,$3,0*%
G04 Aperture macros list end*
%ADD10O,3.500000X13.000000*%
%ADD11O,13.000000X3.500000*%
%ADD12O,9.500000X3.000000*%
%ADD13R,2.000000X5.500000*%
%ADD14C,3.000000*%
%ADD15RoundRect,0.225000X0.225000X0.250000X-0.225000X0.250000X-0.225000X-0.250000X0.225000X-0.250000X0*%
%ADD16C,1.600000*%
%ADD17RoundRect,0.225000X0.250000X-0.225000X0.250000X0.225000X-0.250000X0.225000X-0.250000X-0.225000X0*%
%ADD18RoundRect,0.225000X-0.250000X0.225000X-0.250000X-0.225000X0.250000X-0.225000X0.250000X0.225000X0*%
%ADD19R,1.550000X2.350000*%
%ADD20RoundRect,0.243750X-0.243750X-0.456250X0.243750X-0.456250X0.243750X0.456250X-0.243750X0.456250X0*%
%ADD21RoundRect,0.250000X0.600000X0.750000X-0.600000X0.750000X-0.600000X-0.750000X0.600000X-0.750000X0*%
%ADD22O,1.700000X2.000000*%
%ADD23RoundRect,0.250000X-0.600000X-0.750000X0.600000X-0.750000X0.600000X0.750000X-0.600000X0.750000X0*%
%ADD24R,1.050000X0.700000*%
%ADD25RoundRect,0.200000X-0.200000X-0.275000X0.200000X-0.275000X0.200000X0.275000X-0.200000X0.275000X0*%
%ADD26RoundRect,0.200000X0.200000X0.275000X-0.200000X0.275000X-0.200000X-0.275000X0.200000X-0.275000X0*%
%ADD27RoundRect,0.150000X0.825000X0.150000X-0.825000X0.150000X-0.825000X-0.150000X0.825000X-0.150000X0*%
G04 APERTURE END LIST*
D10*
%TO.C,K1*%
X48000000Y-33300000D03*
D11*
X65800000Y-33300000D03*
D12*
X56400000Y-25000000D03*
X56400000Y-41600000D03*
%TD*%
D13*
%TO.C,L1*%
X40500000Y-25400000D03*
X36200000Y-25400000D03*
%TD*%
D14*
%TO.C,REF\u002A\u002A*%
X23250000Y-43250000D03*
%TD*%
%TO.C,REF\u002A\u002A*%
X93250000Y-23250000D03*
%TD*%
%TO.C,REF\u002A\u002A*%
X93250000Y-43250000D03*
%TD*%
%TO.C,REF\u002A\u002A*%
X23250000Y-23250000D03*
%TD*%
D15*
%TO.C,C1*%
X43550000Y-29310000D03*
X42000000Y-29310000D03*
%TD*%
D16*
%TO.C,C2*%
X28950000Y-24600000D03*
X32450000Y-24600000D03*
%TD*%
%TO.C,C3*%
X39200000Y-39050000D03*
X39200000Y-42550000D03*
%TD*%
D17*
%TO.C,C4*%
X36000000Y-32360000D03*
X36000000Y-30810000D03*
%TD*%
D18*
%TO.C,C5*%
X34500000Y-29260000D03*
X34500000Y-30810000D03*
%TD*%
D19*
%TO.C,D1*%
X43450000Y-27100000D03*
X43450000Y-22800000D03*
%TD*%
D20*
%TO.C,D2*%
X80162500Y-35200000D03*
X82037500Y-35200000D03*
%TD*%
%TO.C,D3*%
X80162500Y-32550000D03*
X82037500Y-32550000D03*
%TD*%
D21*
%TO.C,J1*%
X78350000Y-24050000D03*
D22*
X75850000Y-24050000D03*
%TD*%
D23*
%TO.C,J2*%
X75900000Y-42350000D03*
D22*
X78400000Y-42350000D03*
%TD*%
D21*
%TO.C,J3*%
X86950000Y-24050000D03*
D22*
X84450000Y-24050000D03*
%TD*%
D24*
%TO.C,Q1*%
X76700000Y-31300000D03*
X76700000Y-29400000D03*
X74400000Y-30350000D03*
%TD*%
D25*
%TO.C,R1*%
X34450000Y-33860000D03*
X36100000Y-33860000D03*
%TD*%
%TO.C,R2*%
X34450000Y-35360000D03*
X36100000Y-35360000D03*
%TD*%
D26*
%TO.C,R3*%
X40600000Y-29310000D03*
X38950000Y-29310000D03*
%TD*%
%TO.C,R4*%
X37600000Y-29310000D03*
X35950000Y-29310000D03*
%TD*%
%TO.C,R5*%
X81275000Y-29250000D03*
X82925000Y-29250000D03*
%TD*%
%TO.C,R6*%
X75225000Y-27700000D03*
X73575000Y-27700000D03*
%TD*%
%TO.C,R7*%
X78225000Y-29250000D03*
X79875000Y-29250000D03*
%TD*%
D27*
%TO.C,U1*%
X43000000Y-34670000D03*
X43000000Y-33400000D03*
X43000000Y-32130000D03*
X43000000Y-30860000D03*
X38050000Y-30860000D03*
X38050000Y-32130000D03*
X38050000Y-33400000D03*
X38050000Y-34670000D03*
%TD*%
M02*
