%TF.GenerationSoftware,KiCad,Pcbnew,8.0.8*%
%TF.CreationDate,2026-01-07T21:13:01+09:00*%
%TF.ProjectId,emergency_board_NHK2026,656d6572-6765-46e6-9379-5f626f617264,rev?*%
%TF.SameCoordinates,Original*%
%TF.FileFunction,Legend,Top*%
%TF.FilePolarity,Positive*%
%FSLAX46Y46*%
G04 Gerber Fmt 4.6, Leading zero omitted, Abs format (unit mm)*
G04 Created by KiCad (PCBNEW 8.0.8) date 2026-01-07 21:13:01*
%MOMM*%
%LPD*%
G01*
G04 APERTURE LIST*
%ADD10C,0.100000*%
%ADD11C,0.300000*%
%ADD12C,0.500000*%
%ADD13C,0.600000*%
%ADD14C,0.400000*%
%ADD15C,0.120000*%
%ADD16C,0.200000*%
G04 APERTURE END LIST*
D10*
X81951390Y-41753884D02*
X81951390Y-42087217D01*
X81427580Y-42230074D02*
X81427580Y-41753884D01*
X81427580Y-41753884D02*
X82427580Y-41753884D01*
X82427580Y-41753884D02*
X82427580Y-42230074D01*
X81427580Y-42658646D02*
X82427580Y-42658646D01*
X82427580Y-42658646D02*
X81713295Y-42991979D01*
X81713295Y-42991979D02*
X82427580Y-43325312D01*
X82427580Y-43325312D02*
X81427580Y-43325312D01*
X81475200Y-43753884D02*
X81427580Y-43896741D01*
X81427580Y-43896741D02*
X81427580Y-44134836D01*
X81427580Y-44134836D02*
X81475200Y-44230074D01*
X81475200Y-44230074D02*
X81522819Y-44277693D01*
X81522819Y-44277693D02*
X81618057Y-44325312D01*
X81618057Y-44325312D02*
X81713295Y-44325312D01*
X81713295Y-44325312D02*
X81808533Y-44277693D01*
X81808533Y-44277693D02*
X81856152Y-44230074D01*
X81856152Y-44230074D02*
X81903771Y-44134836D01*
X81903771Y-44134836D02*
X81951390Y-43944360D01*
X81951390Y-43944360D02*
X81999009Y-43849122D01*
X81999009Y-43849122D02*
X82046628Y-43801503D01*
X82046628Y-43801503D02*
X82141866Y-43753884D01*
X82141866Y-43753884D02*
X82237104Y-43753884D01*
X82237104Y-43753884D02*
X82332342Y-43801503D01*
X82332342Y-43801503D02*
X82379961Y-43849122D01*
X82379961Y-43849122D02*
X82427580Y-43944360D01*
X82427580Y-43944360D02*
X82427580Y-44182455D01*
X82427580Y-44182455D02*
X82379961Y-44325312D01*
X72979961Y-42327693D02*
X73027580Y-42232455D01*
X73027580Y-42232455D02*
X73027580Y-42089598D01*
X73027580Y-42089598D02*
X72979961Y-41946741D01*
X72979961Y-41946741D02*
X72884723Y-41851503D01*
X72884723Y-41851503D02*
X72789485Y-41803884D01*
X72789485Y-41803884D02*
X72599009Y-41756265D01*
X72599009Y-41756265D02*
X72456152Y-41756265D01*
X72456152Y-41756265D02*
X72265676Y-41803884D01*
X72265676Y-41803884D02*
X72170438Y-41851503D01*
X72170438Y-41851503D02*
X72075200Y-41946741D01*
X72075200Y-41946741D02*
X72027580Y-42089598D01*
X72027580Y-42089598D02*
X72027580Y-42184836D01*
X72027580Y-42184836D02*
X72075200Y-42327693D01*
X72075200Y-42327693D02*
X72122819Y-42375312D01*
X72122819Y-42375312D02*
X72456152Y-42375312D01*
X72456152Y-42375312D02*
X72456152Y-42184836D01*
X72027580Y-42803884D02*
X73027580Y-42803884D01*
X73027580Y-42803884D02*
X72027580Y-43375312D01*
X72027580Y-43375312D02*
X73027580Y-43375312D01*
X72027580Y-43851503D02*
X73027580Y-43851503D01*
X73027580Y-43851503D02*
X73027580Y-44089598D01*
X73027580Y-44089598D02*
X72979961Y-44232455D01*
X72979961Y-44232455D02*
X72884723Y-44327693D01*
X72884723Y-44327693D02*
X72789485Y-44375312D01*
X72789485Y-44375312D02*
X72599009Y-44422931D01*
X72599009Y-44422931D02*
X72456152Y-44422931D01*
X72456152Y-44422931D02*
X72265676Y-44375312D01*
X72265676Y-44375312D02*
X72170438Y-44327693D01*
X72170438Y-44327693D02*
X72075200Y-44232455D01*
X72075200Y-44232455D02*
X72027580Y-44089598D01*
X72027580Y-44089598D02*
X72027580Y-43851503D01*
X33725000Y-27900000D02*
X34975000Y-27900000D01*
X34350000Y-28525000D02*
X34350000Y-27275000D01*
X41600000Y-37075000D02*
X41600000Y-35825000D01*
X40975000Y-36450000D02*
X42225000Y-36450000D01*
D11*
X79870582Y-38707971D02*
X79790225Y-38779400D01*
X79790225Y-38779400D02*
X79567010Y-38850828D01*
X79567010Y-38850828D02*
X79424153Y-38850828D01*
X79424153Y-38850828D02*
X79218796Y-38779400D01*
X79218796Y-38779400D02*
X79093796Y-38636542D01*
X79093796Y-38636542D02*
X79040225Y-38493685D01*
X79040225Y-38493685D02*
X79004510Y-38207971D01*
X79004510Y-38207971D02*
X79031296Y-37993685D01*
X79031296Y-37993685D02*
X79138439Y-37707971D01*
X79138439Y-37707971D02*
X79227725Y-37565114D01*
X79227725Y-37565114D02*
X79388439Y-37422257D01*
X79388439Y-37422257D02*
X79611653Y-37350828D01*
X79611653Y-37350828D02*
X79754510Y-37350828D01*
X79754510Y-37350828D02*
X79959868Y-37422257D01*
X79959868Y-37422257D02*
X80022368Y-37493685D01*
X81352725Y-38850828D02*
X80942010Y-38136542D01*
X80495582Y-38850828D02*
X80683082Y-37350828D01*
X80683082Y-37350828D02*
X81254510Y-37350828D01*
X81254510Y-37350828D02*
X81388439Y-37422257D01*
X81388439Y-37422257D02*
X81450939Y-37493685D01*
X81450939Y-37493685D02*
X81504510Y-37636542D01*
X81504510Y-37636542D02*
X81477725Y-37850828D01*
X81477725Y-37850828D02*
X81388439Y-37993685D01*
X81388439Y-37993685D02*
X81308082Y-38065114D01*
X81308082Y-38065114D02*
X81156296Y-38136542D01*
X81156296Y-38136542D02*
X80584868Y-38136542D01*
X81933082Y-38779400D02*
X82138439Y-38850828D01*
X82138439Y-38850828D02*
X82495582Y-38850828D01*
X82495582Y-38850828D02*
X82647368Y-38779400D01*
X82647368Y-38779400D02*
X82727725Y-38707971D01*
X82727725Y-38707971D02*
X82817010Y-38565114D01*
X82817010Y-38565114D02*
X82834868Y-38422257D01*
X82834868Y-38422257D02*
X82781296Y-38279400D01*
X82781296Y-38279400D02*
X82718796Y-38207971D01*
X82718796Y-38207971D02*
X82584868Y-38136542D01*
X82584868Y-38136542D02*
X82308082Y-38065114D01*
X82308082Y-38065114D02*
X82174153Y-37993685D01*
X82174153Y-37993685D02*
X82111653Y-37922257D01*
X82111653Y-37922257D02*
X82058082Y-37779400D01*
X82058082Y-37779400D02*
X82075939Y-37636542D01*
X82075939Y-37636542D02*
X82165225Y-37493685D01*
X82165225Y-37493685D02*
X82245582Y-37422257D01*
X82245582Y-37422257D02*
X82397368Y-37350828D01*
X82397368Y-37350828D02*
X82754510Y-37350828D01*
X82754510Y-37350828D02*
X82959868Y-37422257D01*
D12*
X72000000Y-35700000D02*
X75500000Y-35700000D01*
X79025000Y-35715544D02*
X77275000Y-32684455D01*
X73800000Y-38750000D02*
X77300000Y-38750000D01*
X77200000Y-38600000D02*
X75550000Y-35718911D01*
X73775000Y-38715544D02*
X72000000Y-35700000D01*
X77300000Y-38750000D02*
X79025000Y-35734455D01*
X73750000Y-32668911D02*
X77250000Y-32668911D01*
X75500000Y-35700000D02*
X79000000Y-35700000D01*
X72000000Y-35700000D02*
X73750000Y-32668911D01*
D13*
X28694736Y-41480561D02*
X28694736Y-43413895D01*
X27980450Y-40375800D02*
X27266164Y-42447228D01*
X27266164Y-42447228D02*
X29123307Y-42447228D01*
X30837593Y-40513895D02*
X31123307Y-40513895D01*
X31123307Y-40513895D02*
X31409021Y-40651990D01*
X31409021Y-40651990D02*
X31551879Y-40790085D01*
X31551879Y-40790085D02*
X31694736Y-41066276D01*
X31694736Y-41066276D02*
X31837593Y-41618657D01*
X31837593Y-41618657D02*
X31837593Y-42309133D01*
X31837593Y-42309133D02*
X31694736Y-42861514D01*
X31694736Y-42861514D02*
X31551879Y-43137704D01*
X31551879Y-43137704D02*
X31409021Y-43275800D01*
X31409021Y-43275800D02*
X31123307Y-43413895D01*
X31123307Y-43413895D02*
X30837593Y-43413895D01*
X30837593Y-43413895D02*
X30551879Y-43275800D01*
X30551879Y-43275800D02*
X30409021Y-43137704D01*
X30409021Y-43137704D02*
X30266164Y-42861514D01*
X30266164Y-42861514D02*
X30123307Y-42309133D01*
X30123307Y-42309133D02*
X30123307Y-41618657D01*
X30123307Y-41618657D02*
X30266164Y-41066276D01*
X30266164Y-41066276D02*
X30409021Y-40790085D01*
X30409021Y-40790085D02*
X30551879Y-40651990D01*
X30551879Y-40651990D02*
X30837593Y-40513895D01*
X32980450Y-42585323D02*
X34409022Y-42585323D01*
X32694736Y-43413895D02*
X33694736Y-40513895D01*
X33694736Y-40513895D02*
X34694736Y-43413895D01*
D10*
X173238890Y-123861656D02*
X173238890Y-124194989D01*
X172715080Y-124337846D02*
X172715080Y-123861656D01*
X172715080Y-123861656D02*
X173715080Y-123861656D01*
X173715080Y-123861656D02*
X173715080Y-124337846D01*
X172715080Y-124766418D02*
X173715080Y-124766418D01*
X173715080Y-124766418D02*
X173000795Y-125099751D01*
X173000795Y-125099751D02*
X173715080Y-125433084D01*
X173715080Y-125433084D02*
X172715080Y-125433084D01*
X172762700Y-125861656D02*
X172715080Y-126004513D01*
X172715080Y-126004513D02*
X172715080Y-126242608D01*
X172715080Y-126242608D02*
X172762700Y-126337846D01*
X172762700Y-126337846D02*
X172810319Y-126385465D01*
X172810319Y-126385465D02*
X172905557Y-126433084D01*
X172905557Y-126433084D02*
X173000795Y-126433084D01*
X173000795Y-126433084D02*
X173096033Y-126385465D01*
X173096033Y-126385465D02*
X173143652Y-126337846D01*
X173143652Y-126337846D02*
X173191271Y-126242608D01*
X173191271Y-126242608D02*
X173238890Y-126052132D01*
X173238890Y-126052132D02*
X173286509Y-125956894D01*
X173286509Y-125956894D02*
X173334128Y-125909275D01*
X173334128Y-125909275D02*
X173429366Y-125861656D01*
X173429366Y-125861656D02*
X173524604Y-125861656D01*
X173524604Y-125861656D02*
X173619842Y-125909275D01*
X173619842Y-125909275D02*
X173667461Y-125956894D01*
X173667461Y-125956894D02*
X173715080Y-126052132D01*
X173715080Y-126052132D02*
X173715080Y-126290227D01*
X173715080Y-126290227D02*
X173667461Y-126433084D01*
X76253884Y-27648609D02*
X76587217Y-27648609D01*
X76730074Y-28172419D02*
X76253884Y-28172419D01*
X76253884Y-28172419D02*
X76253884Y-27172419D01*
X76253884Y-27172419D02*
X76730074Y-27172419D01*
X77158646Y-28172419D02*
X77158646Y-27505752D01*
X77158646Y-27600990D02*
X77206265Y-27553371D01*
X77206265Y-27553371D02*
X77301503Y-27505752D01*
X77301503Y-27505752D02*
X77444360Y-27505752D01*
X77444360Y-27505752D02*
X77539598Y-27553371D01*
X77539598Y-27553371D02*
X77587217Y-27648609D01*
X77587217Y-27648609D02*
X77587217Y-28172419D01*
X77587217Y-27648609D02*
X77634836Y-27553371D01*
X77634836Y-27553371D02*
X77730074Y-27505752D01*
X77730074Y-27505752D02*
X77872931Y-27505752D01*
X77872931Y-27505752D02*
X77968170Y-27553371D01*
X77968170Y-27553371D02*
X78015789Y-27648609D01*
X78015789Y-27648609D02*
X78015789Y-28172419D01*
X78872931Y-28124800D02*
X78777693Y-28172419D01*
X78777693Y-28172419D02*
X78587217Y-28172419D01*
X78587217Y-28172419D02*
X78491979Y-28124800D01*
X78491979Y-28124800D02*
X78444360Y-28029561D01*
X78444360Y-28029561D02*
X78444360Y-27648609D01*
X78444360Y-27648609D02*
X78491979Y-27553371D01*
X78491979Y-27553371D02*
X78587217Y-27505752D01*
X78587217Y-27505752D02*
X78777693Y-27505752D01*
X78777693Y-27505752D02*
X78872931Y-27553371D01*
X78872931Y-27553371D02*
X78920550Y-27648609D01*
X78920550Y-27648609D02*
X78920550Y-27743847D01*
X78920550Y-27743847D02*
X78444360Y-27839085D01*
X79349122Y-28172419D02*
X79349122Y-27505752D01*
X79349122Y-27696228D02*
X79396741Y-27600990D01*
X79396741Y-27600990D02*
X79444360Y-27553371D01*
X79444360Y-27553371D02*
X79539598Y-27505752D01*
X79539598Y-27505752D02*
X79634836Y-27505752D01*
X80396741Y-27505752D02*
X80396741Y-28315276D01*
X80396741Y-28315276D02*
X80349122Y-28410514D01*
X80349122Y-28410514D02*
X80301503Y-28458133D01*
X80301503Y-28458133D02*
X80206265Y-28505752D01*
X80206265Y-28505752D02*
X80063408Y-28505752D01*
X80063408Y-28505752D02*
X79968170Y-28458133D01*
X80396741Y-28124800D02*
X80301503Y-28172419D01*
X80301503Y-28172419D02*
X80111027Y-28172419D01*
X80111027Y-28172419D02*
X80015789Y-28124800D01*
X80015789Y-28124800D02*
X79968170Y-28077180D01*
X79968170Y-28077180D02*
X79920551Y-27981942D01*
X79920551Y-27981942D02*
X79920551Y-27696228D01*
X79920551Y-27696228D02*
X79968170Y-27600990D01*
X79968170Y-27600990D02*
X80015789Y-27553371D01*
X80015789Y-27553371D02*
X80111027Y-27505752D01*
X80111027Y-27505752D02*
X80301503Y-27505752D01*
X80301503Y-27505752D02*
X80396741Y-27553371D01*
X81253884Y-28124800D02*
X81158646Y-28172419D01*
X81158646Y-28172419D02*
X80968170Y-28172419D01*
X80968170Y-28172419D02*
X80872932Y-28124800D01*
X80872932Y-28124800D02*
X80825313Y-28029561D01*
X80825313Y-28029561D02*
X80825313Y-27648609D01*
X80825313Y-27648609D02*
X80872932Y-27553371D01*
X80872932Y-27553371D02*
X80968170Y-27505752D01*
X80968170Y-27505752D02*
X81158646Y-27505752D01*
X81158646Y-27505752D02*
X81253884Y-27553371D01*
X81253884Y-27553371D02*
X81301503Y-27648609D01*
X81301503Y-27648609D02*
X81301503Y-27743847D01*
X81301503Y-27743847D02*
X80825313Y-27839085D01*
X81730075Y-27505752D02*
X81730075Y-28172419D01*
X81730075Y-27600990D02*
X81777694Y-27553371D01*
X81777694Y-27553371D02*
X81872932Y-27505752D01*
X81872932Y-27505752D02*
X82015789Y-27505752D01*
X82015789Y-27505752D02*
X82111027Y-27553371D01*
X82111027Y-27553371D02*
X82158646Y-27648609D01*
X82158646Y-27648609D02*
X82158646Y-28172419D01*
X83063408Y-28124800D02*
X82968170Y-28172419D01*
X82968170Y-28172419D02*
X82777694Y-28172419D01*
X82777694Y-28172419D02*
X82682456Y-28124800D01*
X82682456Y-28124800D02*
X82634837Y-28077180D01*
X82634837Y-28077180D02*
X82587218Y-27981942D01*
X82587218Y-27981942D02*
X82587218Y-27696228D01*
X82587218Y-27696228D02*
X82634837Y-27600990D01*
X82634837Y-27600990D02*
X82682456Y-27553371D01*
X82682456Y-27553371D02*
X82777694Y-27505752D01*
X82777694Y-27505752D02*
X82968170Y-27505752D01*
X82968170Y-27505752D02*
X83063408Y-27553371D01*
X83396742Y-27505752D02*
X83634837Y-28172419D01*
X83872932Y-27505752D02*
X83634837Y-28172419D01*
X83634837Y-28172419D02*
X83539599Y-28410514D01*
X83539599Y-28410514D02*
X83491980Y-28458133D01*
X83491980Y-28458133D02*
X83396742Y-28505752D01*
X84968171Y-28124800D02*
X85063409Y-28172419D01*
X85063409Y-28172419D02*
X85253885Y-28172419D01*
X85253885Y-28172419D02*
X85349123Y-28124800D01*
X85349123Y-28124800D02*
X85396742Y-28029561D01*
X85396742Y-28029561D02*
X85396742Y-27981942D01*
X85396742Y-27981942D02*
X85349123Y-27886704D01*
X85349123Y-27886704D02*
X85253885Y-27839085D01*
X85253885Y-27839085D02*
X85111028Y-27839085D01*
X85111028Y-27839085D02*
X85015790Y-27791466D01*
X85015790Y-27791466D02*
X84968171Y-27696228D01*
X84968171Y-27696228D02*
X84968171Y-27648609D01*
X84968171Y-27648609D02*
X85015790Y-27553371D01*
X85015790Y-27553371D02*
X85111028Y-27505752D01*
X85111028Y-27505752D02*
X85253885Y-27505752D01*
X85253885Y-27505752D02*
X85349123Y-27553371D01*
X85730076Y-27505752D02*
X85920552Y-28172419D01*
X85920552Y-28172419D02*
X86111028Y-27696228D01*
X86111028Y-27696228D02*
X86301504Y-28172419D01*
X86301504Y-28172419D02*
X86491980Y-27505752D01*
X86872933Y-28172419D02*
X86872933Y-27505752D01*
X86872933Y-27172419D02*
X86825314Y-27220038D01*
X86825314Y-27220038D02*
X86872933Y-27267657D01*
X86872933Y-27267657D02*
X86920552Y-27220038D01*
X86920552Y-27220038D02*
X86872933Y-27172419D01*
X86872933Y-27172419D02*
X86872933Y-27267657D01*
X87206266Y-27505752D02*
X87587218Y-27505752D01*
X87349123Y-27172419D02*
X87349123Y-28029561D01*
X87349123Y-28029561D02*
X87396742Y-28124800D01*
X87396742Y-28124800D02*
X87491980Y-28172419D01*
X87491980Y-28172419D02*
X87587218Y-28172419D01*
X88349123Y-28124800D02*
X88253885Y-28172419D01*
X88253885Y-28172419D02*
X88063409Y-28172419D01*
X88063409Y-28172419D02*
X87968171Y-28124800D01*
X87968171Y-28124800D02*
X87920552Y-28077180D01*
X87920552Y-28077180D02*
X87872933Y-27981942D01*
X87872933Y-27981942D02*
X87872933Y-27696228D01*
X87872933Y-27696228D02*
X87920552Y-27600990D01*
X87920552Y-27600990D02*
X87968171Y-27553371D01*
X87968171Y-27553371D02*
X88063409Y-27505752D01*
X88063409Y-27505752D02*
X88253885Y-27505752D01*
X88253885Y-27505752D02*
X88349123Y-27553371D01*
X88777695Y-28172419D02*
X88777695Y-27172419D01*
X89206266Y-28172419D02*
X89206266Y-27648609D01*
X89206266Y-27648609D02*
X89158647Y-27553371D01*
X89158647Y-27553371D02*
X89063409Y-27505752D01*
X89063409Y-27505752D02*
X88920552Y-27505752D01*
X88920552Y-27505752D02*
X88825314Y-27553371D01*
X88825314Y-27553371D02*
X88777695Y-27600990D01*
X90349124Y-28172419D02*
X90872933Y-27505752D01*
X90349124Y-27505752D02*
X90872933Y-28172419D01*
X91206267Y-27267657D02*
X91253886Y-27220038D01*
X91253886Y-27220038D02*
X91349124Y-27172419D01*
X91349124Y-27172419D02*
X91587219Y-27172419D01*
X91587219Y-27172419D02*
X91682457Y-27220038D01*
X91682457Y-27220038D02*
X91730076Y-27267657D01*
X91730076Y-27267657D02*
X91777695Y-27362895D01*
X91777695Y-27362895D02*
X91777695Y-27458133D01*
X91777695Y-27458133D02*
X91730076Y-27600990D01*
X91730076Y-27600990D02*
X91158648Y-28172419D01*
X91158648Y-28172419D02*
X91777695Y-28172419D01*
D14*
X28482204Y-45993961D02*
X28386966Y-46089200D01*
X28386966Y-46089200D02*
X28101252Y-46184438D01*
X28101252Y-46184438D02*
X27910776Y-46184438D01*
X27910776Y-46184438D02*
X27625061Y-46089200D01*
X27625061Y-46089200D02*
X27434585Y-45898723D01*
X27434585Y-45898723D02*
X27339347Y-45708247D01*
X27339347Y-45708247D02*
X27244109Y-45327295D01*
X27244109Y-45327295D02*
X27244109Y-45041580D01*
X27244109Y-45041580D02*
X27339347Y-44660628D01*
X27339347Y-44660628D02*
X27434585Y-44470152D01*
X27434585Y-44470152D02*
X27625061Y-44279676D01*
X27625061Y-44279676D02*
X27910776Y-44184438D01*
X27910776Y-44184438D02*
X28101252Y-44184438D01*
X28101252Y-44184438D02*
X28386966Y-44279676D01*
X28386966Y-44279676D02*
X28482204Y-44374914D01*
X29720299Y-44184438D02*
X30101252Y-44184438D01*
X30101252Y-44184438D02*
X30291728Y-44279676D01*
X30291728Y-44279676D02*
X30482204Y-44470152D01*
X30482204Y-44470152D02*
X30577442Y-44851104D01*
X30577442Y-44851104D02*
X30577442Y-45517771D01*
X30577442Y-45517771D02*
X30482204Y-45898723D01*
X30482204Y-45898723D02*
X30291728Y-46089200D01*
X30291728Y-46089200D02*
X30101252Y-46184438D01*
X30101252Y-46184438D02*
X29720299Y-46184438D01*
X29720299Y-46184438D02*
X29529823Y-46089200D01*
X29529823Y-46089200D02*
X29339347Y-45898723D01*
X29339347Y-45898723D02*
X29244109Y-45517771D01*
X29244109Y-45517771D02*
X29244109Y-44851104D01*
X29244109Y-44851104D02*
X29339347Y-44470152D01*
X29339347Y-44470152D02*
X29529823Y-44279676D01*
X29529823Y-44279676D02*
X29720299Y-44184438D01*
X31434585Y-46184438D02*
X31434585Y-44184438D01*
X31434585Y-44184438D02*
X32577442Y-46184438D01*
X32577442Y-46184438D02*
X32577442Y-44184438D01*
X33244109Y-44184438D02*
X34386966Y-44184438D01*
X33815537Y-46184438D02*
X33815537Y-44184438D01*
X35053633Y-45993961D02*
X35148871Y-46089200D01*
X35148871Y-46089200D02*
X35053633Y-46184438D01*
X35053633Y-46184438D02*
X34958395Y-46089200D01*
X34958395Y-46089200D02*
X35053633Y-45993961D01*
X35053633Y-45993961D02*
X35053633Y-46184438D01*
D13*
X20498342Y-32159021D02*
X23498342Y-32159021D01*
X20498342Y-33587592D02*
X23498342Y-33587592D01*
X23498342Y-33587592D02*
X20498342Y-35301878D01*
X20498342Y-35301878D02*
X23498342Y-35301878D01*
X95598342Y-30280450D02*
X95598342Y-30851878D01*
X95598342Y-30851878D02*
X95455485Y-31137593D01*
X95455485Y-31137593D02*
X95169771Y-31423307D01*
X95169771Y-31423307D02*
X94598342Y-31566164D01*
X94598342Y-31566164D02*
X93598342Y-31566164D01*
X93598342Y-31566164D02*
X93026914Y-31423307D01*
X93026914Y-31423307D02*
X92741200Y-31137593D01*
X92741200Y-31137593D02*
X92598342Y-30851878D01*
X92598342Y-30851878D02*
X92598342Y-30280450D01*
X92598342Y-30280450D02*
X92741200Y-29994736D01*
X92741200Y-29994736D02*
X93026914Y-29709021D01*
X93026914Y-29709021D02*
X93598342Y-29566164D01*
X93598342Y-29566164D02*
X94598342Y-29566164D01*
X94598342Y-29566164D02*
X95169771Y-29709021D01*
X95169771Y-29709021D02*
X95455485Y-29994736D01*
X95455485Y-29994736D02*
X95598342Y-30280450D01*
X95598342Y-32851878D02*
X93169771Y-32851878D01*
X93169771Y-32851878D02*
X92884057Y-32994735D01*
X92884057Y-32994735D02*
X92741200Y-33137593D01*
X92741200Y-33137593D02*
X92598342Y-33423307D01*
X92598342Y-33423307D02*
X92598342Y-33994735D01*
X92598342Y-33994735D02*
X92741200Y-34280450D01*
X92741200Y-34280450D02*
X92884057Y-34423307D01*
X92884057Y-34423307D02*
X93169771Y-34566164D01*
X93169771Y-34566164D02*
X95598342Y-34566164D01*
X95598342Y-35566164D02*
X95598342Y-37280450D01*
X92598342Y-36423307D02*
X95598342Y-36423307D01*
D10*
%TO.C,K1*%
X51450000Y-33300000D02*
X58350000Y-33300000D01*
X55350000Y-28200000D02*
X55350000Y-39100000D01*
X55350000Y-39100000D02*
X54650000Y-38400000D01*
X55350000Y-39100000D02*
X56050000Y-38400000D01*
X58350000Y-33300000D02*
X57650000Y-32600000D01*
X58350000Y-33300000D02*
X57650000Y-34000000D01*
X45350000Y-20300000D02*
X71350000Y-20300000D01*
X71350000Y-46300000D01*
X45350000Y-46300000D01*
X45350000Y-20300000D01*
%TO.C,L1*%
X37250000Y-22700000D02*
X39450000Y-22700000D01*
X37250000Y-28100000D02*
X39450000Y-28100000D01*
X37350000Y-25400000D02*
G75*
G02*
X37850000Y-25400000I250000J0D01*
G01*
X37850000Y-25400000D02*
G75*
G02*
X38350000Y-25400000I250000J0D01*
G01*
X38350000Y-25400000D02*
G75*
G02*
X38850000Y-25400000I250000J0D01*
G01*
X38850000Y-25400000D02*
G75*
G02*
X39350000Y-25400000I250000J0D01*
G01*
D15*
%TO.C,C1*%
X42915580Y-29820000D02*
X42634420Y-29820000D01*
X42915580Y-28800000D02*
X42634420Y-28800000D01*
%TO.C,C2*%
X34820000Y-24600000D02*
G75*
G02*
X26580000Y-24600000I-4120000J0D01*
G01*
X26580000Y-24600000D02*
G75*
G02*
X34820000Y-24600000I4120000J0D01*
G01*
%TO.C,C3*%
X43320000Y-40800000D02*
G75*
G02*
X35080000Y-40800000I-4120000J0D01*
G01*
X35080000Y-40800000D02*
G75*
G02*
X43320000Y-40800000I4120000J0D01*
G01*
%TO.C,C4*%
X35490000Y-31725580D02*
X35490000Y-31444420D01*
X36510000Y-31725580D02*
X36510000Y-31444420D01*
%TO.C,C5*%
X35010000Y-29894420D02*
X35010000Y-30175580D01*
X33990000Y-29894420D02*
X33990000Y-30175580D01*
D16*
%TO.C,D1*%
X44812000Y-27550000D02*
X44812000Y-22350000D01*
X42088000Y-22350000D02*
X42088000Y-27875000D01*
D15*
%TO.C,D2*%
X79415000Y-34240000D02*
X79415000Y-36160000D01*
X79415000Y-36160000D02*
X82100000Y-36160000D01*
X82100000Y-34240000D02*
X79415000Y-34240000D01*
%TO.C,D3*%
X79415000Y-31590000D02*
X79415000Y-33510000D01*
X79415000Y-33510000D02*
X82100000Y-33510000D01*
X82100000Y-31590000D02*
X79415000Y-31590000D01*
%TO.C,J1*%
X81200000Y-26800000D02*
X81200000Y-25550000D01*
X80910000Y-26510000D02*
X80910000Y-20540000D01*
X80910000Y-20540000D02*
X73290000Y-20540000D01*
X80900000Y-26500000D02*
X80900000Y-25750000D01*
X80900000Y-25750000D02*
X79100000Y-25750000D01*
X80900000Y-24250000D02*
X80150000Y-24250000D01*
X80150000Y-24250000D02*
X80150000Y-21300000D01*
X80150000Y-21300000D02*
X77100000Y-21300000D01*
X79950000Y-26800000D02*
X81200000Y-26800000D01*
X79100000Y-26500000D02*
X80900000Y-26500000D01*
X79100000Y-25750000D02*
X79100000Y-26500000D01*
X77600000Y-26500000D02*
X77600000Y-25750000D01*
X77600000Y-25750000D02*
X76600000Y-25750000D01*
X76600000Y-26500000D02*
X77600000Y-26500000D01*
X76600000Y-25750000D02*
X76600000Y-26500000D01*
X75100000Y-26500000D02*
X75100000Y-25750000D01*
X75100000Y-25750000D02*
X73300000Y-25750000D01*
X74050000Y-24250000D02*
X74050000Y-21300000D01*
X74050000Y-21300000D02*
X77100000Y-21300000D01*
X73300000Y-26500000D02*
X75100000Y-26500000D01*
X73300000Y-25750000D02*
X73300000Y-26500000D01*
X73300000Y-24250000D02*
X74050000Y-24250000D01*
X73290000Y-26510000D02*
X80910000Y-26510000D01*
X73290000Y-20540000D02*
X73290000Y-26510000D01*
%TO.C,J2*%
X73050000Y-39600000D02*
X73050000Y-40850000D01*
X73340000Y-39890000D02*
X73340000Y-45860000D01*
X73340000Y-45860000D02*
X80960000Y-45860000D01*
X73350000Y-39900000D02*
X73350000Y-40650000D01*
X73350000Y-40650000D02*
X75150000Y-40650000D01*
X73350000Y-42150000D02*
X74100000Y-42150000D01*
X74100000Y-42150000D02*
X74100000Y-45100000D01*
X74100000Y-45100000D02*
X77150000Y-45100000D01*
X74300000Y-39600000D02*
X73050000Y-39600000D01*
X75150000Y-39900000D02*
X73350000Y-39900000D01*
X75150000Y-40650000D02*
X75150000Y-39900000D01*
X76650000Y-39900000D02*
X76650000Y-40650000D01*
X76650000Y-40650000D02*
X77650000Y-40650000D01*
X77650000Y-39900000D02*
X76650000Y-39900000D01*
X77650000Y-40650000D02*
X77650000Y-39900000D01*
X79150000Y-39900000D02*
X79150000Y-40650000D01*
X79150000Y-40650000D02*
X80950000Y-40650000D01*
X80200000Y-42150000D02*
X80200000Y-45100000D01*
X80200000Y-45100000D02*
X77150000Y-45100000D01*
X80950000Y-39900000D02*
X79150000Y-39900000D01*
X80950000Y-40650000D02*
X80950000Y-39900000D01*
X80950000Y-42150000D02*
X80200000Y-42150000D01*
X80960000Y-39890000D02*
X73340000Y-39890000D01*
X80960000Y-45860000D02*
X80960000Y-39890000D01*
%TO.C,J3*%
X89800000Y-26800000D02*
X89800000Y-25550000D01*
X89510000Y-26510000D02*
X89510000Y-20540000D01*
X89510000Y-20540000D02*
X81890000Y-20540000D01*
X89500000Y-26500000D02*
X89500000Y-25750000D01*
X89500000Y-25750000D02*
X87700000Y-25750000D01*
X89500000Y-24250000D02*
X88750000Y-24250000D01*
X88750000Y-24250000D02*
X88750000Y-21300000D01*
X88750000Y-21300000D02*
X85700000Y-21300000D01*
X88550000Y-26800000D02*
X89800000Y-26800000D01*
X87700000Y-26500000D02*
X89500000Y-26500000D01*
X87700000Y-25750000D02*
X87700000Y-26500000D01*
X86200000Y-26500000D02*
X86200000Y-25750000D01*
X86200000Y-25750000D02*
X85200000Y-25750000D01*
X85200000Y-26500000D02*
X86200000Y-26500000D01*
X85200000Y-25750000D02*
X85200000Y-26500000D01*
X83700000Y-26500000D02*
X83700000Y-25750000D01*
X83700000Y-25750000D02*
X81900000Y-25750000D01*
X82650000Y-24250000D02*
X82650000Y-21300000D01*
X82650000Y-21300000D02*
X85700000Y-21300000D01*
X81900000Y-26500000D02*
X83700000Y-26500000D01*
X81900000Y-25750000D02*
X81900000Y-26500000D01*
X81900000Y-24250000D02*
X82650000Y-24250000D01*
X81890000Y-26510000D02*
X89510000Y-26510000D01*
X81890000Y-20540000D02*
X81890000Y-26510000D01*
D16*
%TO.C,Q1*%
X77225000Y-31900000D02*
X76175000Y-31900000D01*
X75825000Y-31810000D02*
X75275000Y-31810000D01*
X75825000Y-28890000D02*
X75825000Y-31810000D01*
X75275000Y-31810000D02*
X75275000Y-28890000D01*
X75275000Y-28890000D02*
X75825000Y-28890000D01*
D15*
%TO.C,R1*%
X35037742Y-33337500D02*
X35512258Y-33337500D01*
X35037742Y-34382500D02*
X35512258Y-34382500D01*
%TO.C,R2*%
X35037742Y-34837500D02*
X35512258Y-34837500D01*
X35037742Y-35882500D02*
X35512258Y-35882500D01*
%TO.C,R3*%
X40012258Y-29832500D02*
X39537742Y-29832500D01*
X40012258Y-28787500D02*
X39537742Y-28787500D01*
%TO.C,R4*%
X37012258Y-29832500D02*
X36537742Y-29832500D01*
X37012258Y-28787500D02*
X36537742Y-28787500D01*
%TO.C,R5*%
X82337258Y-28727500D02*
X81862742Y-28727500D01*
X82337258Y-29772500D02*
X81862742Y-29772500D01*
%TO.C,R6*%
X74637258Y-28222500D02*
X74162742Y-28222500D01*
X74637258Y-27177500D02*
X74162742Y-27177500D01*
%TO.C,R7*%
X79287258Y-28727500D02*
X78812742Y-28727500D01*
X79287258Y-29772500D02*
X78812742Y-29772500D01*
%TO.C,U1*%
X40525000Y-35325000D02*
X42475000Y-35325000D01*
X40525000Y-35325000D02*
X38575000Y-35325000D01*
X40525000Y-30205000D02*
X42475000Y-30205000D01*
X40525000Y-30205000D02*
X38575000Y-30205000D01*
X43465000Y-35560000D02*
X42985000Y-35560000D01*
X43225000Y-35230000D01*
X43465000Y-35560000D01*
G36*
X43465000Y-35560000D02*
G01*
X42985000Y-35560000D01*
X43225000Y-35230000D01*
X43465000Y-35560000D01*
G37*
%TD*%
M02*
