%TF.GenerationSoftware,KiCad,Pcbnew,8.0.8*%
%TF.CreationDate,2026-01-07T21:13:00+09:00*%
%TF.ProjectId,emergency_board_NHK2026,656d6572-6765-46e6-9379-5f626f617264,rev?*%
%TF.SameCoordinates,Original*%
%TF.FileFunction,Copper,L1,Top*%
%TF.FilePolarity,Positive*%
%FSLAX46Y46*%
G04 Gerber Fmt 4.6, Leading zero omitted, Abs format (unit mm)*
G04 Created by KiCad (PCBNEW 8.0.8) date 2026-01-07 21:13:00*
%MOMM*%
%LPD*%
G01*
G04 APERTURE LIST*
G04 Aperture macros list*
%AMRoundRect*
0 Rectangle with rounded corners*
0 $1 Rounding radius*
0 $2 $3 $4 $5 $6 $7 $8 $9 X,Y pos of 4 corners*
0 Add a 4 corners polygon primitive as box body*
4,1,4,$2,$3,$4,$5,$6,$7,$8,$9,$2,$3,0*
0 Add four circle primitives for the rounded corners*
1,1,$1+$1,$2,$3*
1,1,$1+$1,$4,$5*
1,1,$1+$1,$6,$7*
1,1,$1+$1,$8,$9*
0 Add four rect primitives between the rounded corners*
20,1,$1+$1,$2,$3,$4,$5,0*
20,1,$1+$1,$4,$5,$6,$7,0*
20,1,$1+$1,$6,$7,$8,$9,0*
20,1,$1+$1,$8,$9,$2,$3,0*%
G04 Aperture macros list end*
%TA.AperFunction,ComponentPad*%
%ADD10O,3.500000X13.000000*%
%TD*%
%TA.AperFunction,ComponentPad*%
%ADD11O,13.000000X3.500000*%
%TD*%
%TA.AperFunction,ComponentPad*%
%ADD12O,9.500000X3.000000*%
%TD*%
%TA.AperFunction,SMDPad,CuDef*%
%ADD13R,2.000000X5.500000*%
%TD*%
%TA.AperFunction,SMDPad,CuDef*%
%ADD14RoundRect,0.225000X0.225000X0.250000X-0.225000X0.250000X-0.225000X-0.250000X0.225000X-0.250000X0*%
%TD*%
%TA.AperFunction,ComponentPad*%
%ADD15C,1.600000*%
%TD*%
%TA.AperFunction,SMDPad,CuDef*%
%ADD16RoundRect,0.225000X0.250000X-0.225000X0.250000X0.225000X-0.250000X0.225000X-0.250000X-0.225000X0*%
%TD*%
%TA.AperFunction,SMDPad,CuDef*%
%ADD17RoundRect,0.225000X-0.250000X0.225000X-0.250000X-0.225000X0.250000X-0.225000X0.250000X0.225000X0*%
%TD*%
%TA.AperFunction,SMDPad,CuDef*%
%ADD18R,1.550000X2.350000*%
%TD*%
%TA.AperFunction,SMDPad,CuDef*%
%ADD19RoundRect,0.243750X-0.243750X-0.456250X0.243750X-0.456250X0.243750X0.456250X-0.243750X0.456250X0*%
%TD*%
%TA.AperFunction,ComponentPad*%
%ADD20RoundRect,0.250000X0.600000X0.750000X-0.600000X0.750000X-0.600000X-0.750000X0.600000X-0.750000X0*%
%TD*%
%TA.AperFunction,ComponentPad*%
%ADD21O,1.700000X2.000000*%
%TD*%
%TA.AperFunction,ComponentPad*%
%ADD22RoundRect,0.250000X-0.600000X-0.750000X0.600000X-0.750000X0.600000X0.750000X-0.600000X0.750000X0*%
%TD*%
%TA.AperFunction,SMDPad,CuDef*%
%ADD23R,1.050000X0.700000*%
%TD*%
%TA.AperFunction,SMDPad,CuDef*%
%ADD24RoundRect,0.200000X-0.200000X-0.275000X0.200000X-0.275000X0.200000X0.275000X-0.200000X0.275000X0*%
%TD*%
%TA.AperFunction,SMDPad,CuDef*%
%ADD25RoundRect,0.200000X0.200000X0.275000X-0.200000X0.275000X-0.200000X-0.275000X0.200000X-0.275000X0*%
%TD*%
%TA.AperFunction,SMDPad,CuDef*%
%ADD26RoundRect,0.150000X0.825000X0.150000X-0.825000X0.150000X-0.825000X-0.150000X0.825000X-0.150000X0*%
%TD*%
%TA.AperFunction,ViaPad*%
%ADD27C,0.600000*%
%TD*%
%TA.AperFunction,Conductor*%
%ADD28C,0.500000*%
%TD*%
%TA.AperFunction,Conductor*%
%ADD29C,0.800000*%
%TD*%
%TA.AperFunction,Conductor*%
%ADD30C,1.200000*%
%TD*%
G04 APERTURE END LIST*
D10*
%TO.P,K1,1*%
%TO.N,24V*%
X48000000Y-33300000D03*
D11*
%TO.P,K1,2*%
%TO.N,unconnected-(K1-Pad2)*%
X65800000Y-33300000D03*
D12*
%TO.P,K1,3*%
%TO.N,Net-(J2-Pin_2)*%
X56400000Y-25000000D03*
%TO.P,K1,4*%
%TO.N,GND*%
X56400000Y-41600000D03*
%TD*%
D13*
%TO.P,L1,1,1*%
%TO.N,Net-(D1-K)*%
X40500000Y-25400000D03*
%TO.P,L1,2,2*%
%TO.N,Net-(J1-Pin_2)*%
X36200000Y-25400000D03*
%TD*%
D14*
%TO.P,C1,1*%
%TO.N,Net-(U1-TC)*%
X43550000Y-29310000D03*
%TO.P,C1,2*%
%TO.N,GND*%
X42000000Y-29310000D03*
%TD*%
D15*
%TO.P,C2,2*%
%TO.N,GND*%
X28950000Y-24600000D03*
%TO.P,C2,1*%
%TO.N,Net-(J1-Pin_2)*%
X32450000Y-24600000D03*
%TD*%
%TO.P,C3,1*%
%TO.N,24V*%
X39200000Y-39050000D03*
%TO.P,C3,2*%
%TO.N,GND*%
X39200000Y-42550000D03*
%TD*%
D16*
%TO.P,C4,1*%
%TO.N,24V*%
X36000000Y-32360000D03*
%TO.P,C4,2*%
%TO.N,GND*%
X36000000Y-30810000D03*
%TD*%
D17*
%TO.P,C5,1*%
%TO.N,Net-(J1-Pin_2)*%
X34500000Y-29260000D03*
%TO.P,C5,2*%
%TO.N,GND*%
X34500000Y-30810000D03*
%TD*%
D18*
%TO.P,D1,1,K*%
%TO.N,Net-(D1-K)*%
X43450000Y-27100000D03*
%TO.P,D1,2,A*%
%TO.N,GND*%
X43450000Y-22800000D03*
%TD*%
D19*
%TO.P,D2,1,K*%
%TO.N,GND*%
X80162500Y-35200000D03*
%TO.P,D2,2,A*%
%TO.N,Net-(D2-A)*%
X82037500Y-35200000D03*
%TD*%
%TO.P,D3,1,K*%
%TO.N,GND*%
X80162500Y-32550000D03*
%TO.P,D3,2,A*%
%TO.N,Net-(D3-A)*%
X82037500Y-32550000D03*
%TD*%
D20*
%TO.P,J1,1,Pin_1*%
%TO.N,Net-(J1-Pin_1)*%
X78350000Y-24050000D03*
D21*
%TO.P,J1,2,Pin_2*%
%TO.N,Net-(J1-Pin_2)*%
X75850000Y-24050000D03*
%TD*%
D22*
%TO.P,J2,1,Pin_1*%
%TO.N,GND*%
X75900000Y-42350000D03*
D21*
%TO.P,J2,2,Pin_2*%
%TO.N,Net-(J2-Pin_2)*%
X78400000Y-42350000D03*
%TD*%
D20*
%TO.P,J3,1,Pin_1*%
%TO.N,Net-(J2-Pin_2)*%
X86950000Y-24050000D03*
D21*
%TO.P,J3,2,Pin_2*%
%TO.N,Net-(J1-Pin_1)*%
X84450000Y-24050000D03*
%TD*%
D23*
%TO.P,Q1,1,C*%
%TO.N,Net-(D3-A)*%
X76700000Y-31300000D03*
%TO.P,Q1,2,B*%
%TO.N,Net-(Q1-B)*%
X76700000Y-29400000D03*
%TO.P,Q1,3,E*%
%TO.N,GND*%
X74400000Y-30350000D03*
%TD*%
D24*
%TO.P,R1,1*%
%TO.N,24V*%
X34450000Y-33860000D03*
%TO.P,R1,2*%
%TO.N,Net-(U1-DC)*%
X36100000Y-33860000D03*
%TD*%
%TO.P,R2,1*%
%TO.N,24V*%
X34450000Y-35360000D03*
%TO.P,R2,2*%
%TO.N,Net-(U1-DC)*%
X36100000Y-35360000D03*
%TD*%
D25*
%TO.P,R3,1*%
%TO.N,GND*%
X40600000Y-29310000D03*
%TO.P,R3,2*%
%TO.N,Net-(U1-Vfb)*%
X38950000Y-29310000D03*
%TD*%
%TO.P,R4,1*%
%TO.N,Net-(U1-Vfb)*%
X37600000Y-29310000D03*
%TO.P,R4,2*%
%TO.N,Net-(J1-Pin_2)*%
X35950000Y-29310000D03*
%TD*%
%TO.P,R5,2*%
%TO.N,Net-(J2-Pin_2)*%
X81275000Y-29250000D03*
%TO.P,R5,1*%
%TO.N,Net-(D2-A)*%
X82925000Y-29250000D03*
%TD*%
%TO.P,R6,1*%
%TO.N,Net-(D3-A)*%
X75225000Y-27700000D03*
%TO.P,R6,2*%
%TO.N,Net-(J1-Pin_2)*%
X73575000Y-27700000D03*
%TD*%
%TO.P,R7,2*%
%TO.N,Net-(Q1-B)*%
X78225000Y-29250000D03*
%TO.P,R7,1*%
%TO.N,Net-(J2-Pin_2)*%
X79875000Y-29250000D03*
%TD*%
D26*
%TO.P,U1,1,SwC*%
%TO.N,Net-(U1-DC)*%
X43000000Y-34670000D03*
%TO.P,U1,2,SwE*%
%TO.N,Net-(D1-K)*%
X43000000Y-33400000D03*
%TO.P,U1,3,TC*%
%TO.N,Net-(U1-TC)*%
X43000000Y-32130000D03*
%TO.P,U1,4,GND*%
%TO.N,GND*%
X43000000Y-30860000D03*
%TO.P,U1,5,Vfb*%
%TO.N,Net-(U1-Vfb)*%
X38050000Y-30860000D03*
%TO.P,U1,6,Vin*%
%TO.N,24V*%
X38050000Y-32130000D03*
%TO.P,U1,7,Ipk*%
%TO.N,Net-(U1-DC)*%
X38050000Y-33400000D03*
%TO.P,U1,8,DC*%
X38050000Y-34670000D03*
%TD*%
D27*
%TO.N,GND*%
X77350000Y-39250000D03*
X67750000Y-23750000D03*
X56500000Y-45500000D03*
X41900000Y-22100000D03*
X89750000Y-28150000D03*
X74400000Y-28750000D03*
X34350000Y-24350000D03*
X34350000Y-26600000D03*
X50650000Y-26500000D03*
X67050000Y-41000000D03*
X90000000Y-23850000D03*
X81850000Y-21800000D03*
X67000000Y-26150000D03*
X79500000Y-36650000D03*
X81150000Y-39700000D03*
X83250000Y-35700000D03*
X85200000Y-43350000D03*
X94250000Y-38450000D03*
X94150000Y-27250000D03*
X94250000Y-33600000D03*
X94750000Y-21600000D03*
X94900000Y-44850000D03*
X40550000Y-31700000D03*
X77350000Y-33800000D03*
X81200000Y-33900000D03*
X84100000Y-28850000D03*
X81950000Y-30400000D03*
X74050000Y-24100000D03*
X74250000Y-20800000D03*
X83650000Y-25600000D03*
X75000000Y-26500000D03*
X75300000Y-31450000D03*
X73100000Y-32800000D03*
X58550000Y-32500000D03*
X65800000Y-30550000D03*
X56600000Y-22500000D03*
X56700000Y-27450000D03*
X50550000Y-33300000D03*
X65850000Y-36050000D03*
X67650000Y-45500000D03*
X46650000Y-45550000D03*
X32900000Y-36300000D03*
X32300000Y-28950000D03*
X33800000Y-32000000D03*
X21200000Y-40050000D03*
X22100000Y-36000000D03*
X22250000Y-31200000D03*
X26250000Y-26950000D03*
X21150000Y-26750000D03*
X26700000Y-21300000D03*
X21700000Y-21700000D03*
X45200000Y-22250000D03*
X43050000Y-24750000D03*
X38300000Y-28150000D03*
X38350000Y-22200000D03*
X34450000Y-20800000D03*
X45600000Y-27550000D03*
X40500000Y-33250000D03*
X33650000Y-43400000D03*
X29600000Y-43400000D03*
X26000000Y-43300000D03*
X55200000Y-35600000D03*
X21500000Y-44650000D03*
X45700000Y-39350000D03*
X45150000Y-34150000D03*
X43500000Y-35900000D03*
X37600000Y-36700000D03*
%TO.N,Net-(J2-Pin_2)*%
X79850000Y-30300000D03*
%TD*%
D28*
%TO.N,GND*%
X41900000Y-22100000D02*
X42750000Y-22100000D01*
X42750000Y-22100000D02*
X43450000Y-22800000D01*
X38350000Y-22200000D02*
X41800000Y-22200000D01*
X41800000Y-22200000D02*
X41900000Y-22100000D01*
D29*
X34160000Y-30810000D02*
X33850000Y-30500000D01*
X33850000Y-30500000D02*
X32300000Y-28950000D01*
X33800000Y-32000000D02*
X33800000Y-30550000D01*
X33800000Y-30550000D02*
X33850000Y-30500000D01*
X33800000Y-32000000D02*
X33800000Y-31510000D01*
X33800000Y-31510000D02*
X34500000Y-30810000D01*
X34500000Y-30810000D02*
X34160000Y-30810000D01*
X36000000Y-30810000D02*
X34500000Y-30810000D01*
X40600000Y-29850000D02*
X39900000Y-30550000D01*
X40600000Y-29310000D02*
X40600000Y-29850000D01*
X40550000Y-31700000D02*
X40550000Y-30300000D01*
X40600000Y-29310000D02*
X40600000Y-30250000D01*
X40600000Y-30250000D02*
X40550000Y-30300000D01*
X40850000Y-31400000D02*
X40850000Y-30450000D01*
X40550000Y-31700000D02*
X40850000Y-31400000D01*
X40850000Y-30450000D02*
X40980000Y-30450000D01*
X40600000Y-29310000D02*
X41450000Y-29310000D01*
X41450000Y-29310000D02*
X42000000Y-29860000D01*
X43000000Y-30860000D02*
X41900000Y-30860000D01*
X40600000Y-29310000D02*
X40600000Y-29560000D01*
X41900000Y-30860000D02*
X41390000Y-30860000D01*
X40600000Y-29560000D02*
X41900000Y-30860000D01*
X42000000Y-29310000D02*
X42000000Y-29860000D01*
X42000000Y-29860000D02*
X43000000Y-30860000D01*
X41390000Y-30860000D02*
X40550000Y-31700000D01*
%TO.N,Net-(J2-Pin_2)*%
X81275000Y-29250000D02*
X79875000Y-29250000D01*
X81275000Y-29250000D02*
X82350000Y-28175000D01*
X82350000Y-28175000D02*
X82825000Y-28175000D01*
X82825000Y-28175000D02*
X86950000Y-24050000D01*
D28*
X79850000Y-30300000D02*
X79850000Y-29275000D01*
X79850000Y-29275000D02*
X79875000Y-29250000D01*
D29*
%TO.N,Net-(Q1-B)*%
X76700000Y-29400000D02*
X78075000Y-29400000D01*
X78075000Y-29400000D02*
X78225000Y-29250000D01*
%TO.N,Net-(D3-A)*%
X76700000Y-31300000D02*
X77150000Y-31300000D01*
X82037500Y-32237500D02*
X82037500Y-32550000D01*
X77150000Y-31300000D02*
X77200000Y-31250000D01*
X77200000Y-31250000D02*
X81050000Y-31250000D01*
X81050000Y-31250000D02*
X82037500Y-32237500D01*
X75225000Y-27700000D02*
X75575000Y-28050000D01*
X75575000Y-28050000D02*
X75575000Y-30175000D01*
X75575000Y-30175000D02*
X76700000Y-31300000D01*
%TO.N,Net-(D2-A)*%
X82037500Y-35200000D02*
X83125000Y-34112500D01*
X83125000Y-34112500D02*
X83125000Y-29450000D01*
X83125000Y-29450000D02*
X82925000Y-29250000D01*
%TO.N,Net-(J1-Pin_2)*%
X73575000Y-27700000D02*
X73575000Y-26325000D01*
X73575000Y-26325000D02*
X75850000Y-24050000D01*
%TO.N,Net-(J1-Pin_1)*%
X78350000Y-24050000D02*
X84450000Y-24050000D01*
D28*
%TO.N,Net-(D3-A)*%
X82037500Y-32550000D02*
X81850000Y-32550000D01*
D29*
%TO.N,Net-(J1-Pin_2)*%
X32450000Y-24600000D02*
X36025000Y-21025000D01*
X36025000Y-21025000D02*
X72825000Y-21025000D01*
X72825000Y-21025000D02*
X75850000Y-24050000D01*
D30*
X32450000Y-24600000D02*
X32450000Y-26850000D01*
X32450000Y-26850000D02*
X34500000Y-28900000D01*
X35950000Y-29065244D02*
X36607622Y-28407622D01*
X35950000Y-29310000D02*
X35950000Y-29065244D01*
X36607622Y-28407622D02*
X36607622Y-25807622D01*
X36607622Y-25807622D02*
X36200000Y-25400000D01*
X34500000Y-29260000D02*
X34500000Y-28900000D01*
X34500000Y-28900000D02*
X36200000Y-27200000D01*
X36200000Y-27200000D02*
X36200000Y-25400000D01*
X34500000Y-29260000D02*
X35900000Y-29260000D01*
X35900000Y-29260000D02*
X35950000Y-29310000D01*
D29*
%TO.N,Net-(U1-Vfb)*%
X38900000Y-30010000D02*
X38900000Y-30000000D01*
X38900000Y-30000000D02*
X38950000Y-29950000D01*
X38050000Y-30860000D02*
X38900000Y-30010000D01*
X38950000Y-29950000D02*
X38950000Y-29310000D01*
X38050000Y-30860000D02*
X37450000Y-30260000D01*
X37450000Y-30260000D02*
X37450000Y-29460000D01*
X37450000Y-29460000D02*
X37600000Y-29310000D01*
X38050000Y-30210000D02*
X38050000Y-29760000D01*
X38050000Y-29760000D02*
X37600000Y-29310000D01*
X37600000Y-29310000D02*
X38950000Y-29310000D01*
X38050000Y-30860000D02*
X38050000Y-30210000D01*
X38050000Y-30210000D02*
X38950000Y-29310000D01*
D30*
%TO.N,24V*%
X46000000Y-36950000D02*
X46000000Y-36300000D01*
X45700000Y-37250000D02*
X46000000Y-36950000D01*
X42250000Y-39050000D02*
X43900000Y-39050000D01*
X43900000Y-39050000D02*
X45700000Y-37250000D01*
X34450000Y-35360000D02*
X34450000Y-35835000D01*
X34450000Y-35835000D02*
X37665000Y-39050000D01*
X37665000Y-39050000D02*
X39200000Y-39050000D01*
X34450000Y-33860000D02*
X34450000Y-35360000D01*
X36000000Y-32360000D02*
X35525000Y-32360000D01*
X34450000Y-33435000D02*
X34450000Y-33860000D01*
X35525000Y-32360000D02*
X34450000Y-33435000D01*
X38050000Y-32130000D02*
X36230000Y-32130000D01*
X36230000Y-32130000D02*
X36000000Y-32360000D01*
%TO.N,Net-(U1-DC)*%
X43000000Y-34670000D02*
X39000000Y-34670000D01*
X39000000Y-34670000D02*
X38050000Y-34670000D01*
D29*
X38050000Y-33400000D02*
X39000000Y-34350000D01*
X39000000Y-34350000D02*
X39000000Y-34670000D01*
D30*
X36100000Y-35360000D02*
X36100000Y-35350000D01*
X36100000Y-35350000D02*
X37590000Y-33860000D01*
X37590000Y-33860000D02*
X36900000Y-33860000D01*
X36900000Y-33860000D02*
X36100000Y-33860000D01*
X36100000Y-35360000D02*
X36100000Y-34660000D01*
X36100000Y-34660000D02*
X36900000Y-33860000D01*
X36100000Y-35360000D02*
X37360000Y-35360000D01*
X37360000Y-35360000D02*
X38050000Y-34670000D01*
D29*
%TO.N,Net-(D1-K)*%
X44100000Y-33400000D02*
X45275001Y-32224999D01*
X45275001Y-32224999D02*
X45275001Y-28925001D01*
X45275001Y-28925001D02*
X43450000Y-27100000D01*
D28*
%TO.N,Net-(U1-TC)*%
X43000000Y-32130000D02*
X43974999Y-32130000D01*
X43974999Y-32130000D02*
X44425000Y-31679999D01*
X44425000Y-31679999D02*
X44425000Y-30185000D01*
X44425000Y-30185000D02*
X43550000Y-29310000D01*
D29*
%TO.N,Net-(D1-K)*%
X43000000Y-33400000D02*
X44100000Y-33400000D01*
D30*
X40500000Y-25400000D02*
X41750000Y-25400000D01*
X41750000Y-25400000D02*
X43450000Y-27100000D01*
%TO.N,24V*%
X42250000Y-39050000D02*
X48000000Y-33300000D01*
X39200000Y-39050000D02*
X42250000Y-39050000D01*
%TD*%
%TA.AperFunction,Conductor*%
%TO.N,GND*%
G36*
X34978229Y-20498914D02*
G01*
X35045265Y-20518600D01*
X35091019Y-20571406D01*
X35100960Y-20640564D01*
X35071934Y-20704119D01*
X35065904Y-20710595D01*
X32516945Y-23259553D01*
X32455622Y-23293038D01*
X32440072Y-23295400D01*
X32223312Y-23314364D01*
X32223302Y-23314366D01*
X32003511Y-23373258D01*
X32003502Y-23373261D01*
X31797267Y-23469431D01*
X31797265Y-23469432D01*
X31610858Y-23599954D01*
X31449954Y-23760858D01*
X31319432Y-23947265D01*
X31319431Y-23947267D01*
X31223261Y-24153502D01*
X31223258Y-24153511D01*
X31164366Y-24373302D01*
X31164364Y-24373313D01*
X31144532Y-24599998D01*
X31144532Y-24600001D01*
X31164364Y-24826686D01*
X31164366Y-24826697D01*
X31223258Y-25046488D01*
X31223260Y-25046492D01*
X31223261Y-25046496D01*
X31254682Y-25113878D01*
X31319431Y-25252733D01*
X31327073Y-25263646D01*
X31349402Y-25329852D01*
X31349500Y-25334772D01*
X31349500Y-26936610D01*
X31371734Y-27076995D01*
X31376598Y-27107701D01*
X31430127Y-27272445D01*
X31508768Y-27426788D01*
X31610586Y-27566928D01*
X31610588Y-27566930D01*
X33372747Y-29329089D01*
X33406232Y-29390412D01*
X33407539Y-29397372D01*
X33426291Y-29515763D01*
X33426598Y-29517701D01*
X33480127Y-29682445D01*
X33558768Y-29836788D01*
X33660586Y-29976928D01*
X33660588Y-29976930D01*
X33660934Y-29977276D01*
X33661023Y-29977439D01*
X33663750Y-29980632D01*
X33663079Y-29981204D01*
X33694419Y-30038599D01*
X33689435Y-30108291D01*
X33678792Y-30130054D01*
X33588454Y-30276513D01*
X33588452Y-30276518D01*
X33535144Y-30437393D01*
X33525000Y-30536677D01*
X33525000Y-30560000D01*
X35876000Y-30560000D01*
X35943039Y-30579685D01*
X35988794Y-30632489D01*
X36000000Y-30684000D01*
X36000000Y-30936000D01*
X35980315Y-31003039D01*
X35927511Y-31048794D01*
X35876000Y-31060000D01*
X33525001Y-31060000D01*
X33525001Y-31083322D01*
X33535144Y-31182607D01*
X33588452Y-31343481D01*
X33588457Y-31343492D01*
X33677424Y-31487728D01*
X33677427Y-31487732D01*
X33797267Y-31607572D01*
X33797271Y-31607575D01*
X33941507Y-31696542D01*
X33941518Y-31696547D01*
X34102393Y-31749855D01*
X34201683Y-31759999D01*
X34269293Y-31759999D01*
X34336333Y-31779683D01*
X34382089Y-31832486D01*
X34392033Y-31901644D01*
X34363009Y-31965200D01*
X34356976Y-31971680D01*
X33733072Y-32595586D01*
X33610588Y-32718069D01*
X33610588Y-32718070D01*
X33610586Y-32718072D01*
X33595641Y-32738642D01*
X33508768Y-32858211D01*
X33430128Y-33012552D01*
X33376597Y-33177302D01*
X33353533Y-33322925D01*
X33349500Y-33348389D01*
X33349500Y-33773389D01*
X33349500Y-35273389D01*
X33349500Y-35748389D01*
X33349500Y-35921611D01*
X33376598Y-36092701D01*
X33430127Y-36257445D01*
X33508768Y-36411788D01*
X33610586Y-36551928D01*
X33610588Y-36551930D01*
X36948070Y-39889413D01*
X36948075Y-39889418D01*
X37029240Y-39948387D01*
X37088210Y-39991231D01*
X37203644Y-40050047D01*
X37203646Y-40050048D01*
X37242548Y-40069870D01*
X37242551Y-40069870D01*
X37242555Y-40069873D01*
X37407299Y-40123403D01*
X37536036Y-40143792D01*
X37552977Y-40146475D01*
X37578386Y-40150500D01*
X37578389Y-40150500D01*
X37578390Y-40150500D01*
X37751611Y-40150500D01*
X38465228Y-40150500D01*
X38532267Y-40170185D01*
X38536340Y-40172917D01*
X38547266Y-40180568D01*
X38753504Y-40276739D01*
X38753509Y-40276740D01*
X38753511Y-40276741D01*
X38806415Y-40290916D01*
X38973308Y-40335635D01*
X39135230Y-40349801D01*
X39199998Y-40355468D01*
X39200000Y-40355468D01*
X39200002Y-40355468D01*
X39256673Y-40350509D01*
X39426692Y-40335635D01*
X39646496Y-40276739D01*
X39852734Y-40180568D01*
X39863649Y-40172924D01*
X39929856Y-40150598D01*
X39934772Y-40150500D01*
X43986610Y-40150500D01*
X43986611Y-40150500D01*
X44157701Y-40123402D01*
X44322445Y-40069873D01*
X44476788Y-39991232D01*
X44616928Y-39889414D01*
X45694190Y-38812150D01*
X45755513Y-38778666D01*
X45825205Y-38783650D01*
X45881138Y-38825522D01*
X45896432Y-38852379D01*
X45977254Y-39047500D01*
X45977258Y-39047510D01*
X46124761Y-39302993D01*
X46304352Y-39537040D01*
X46304358Y-39537047D01*
X46512952Y-39745641D01*
X46512959Y-39745647D01*
X46747006Y-39925238D01*
X47002489Y-40072741D01*
X47002490Y-40072741D01*
X47002493Y-40072743D01*
X47190215Y-40150500D01*
X47262805Y-40180568D01*
X47275048Y-40185639D01*
X47560007Y-40261993D01*
X47852494Y-40300500D01*
X47852501Y-40300500D01*
X48147499Y-40300500D01*
X48147506Y-40300500D01*
X48439993Y-40261993D01*
X48724952Y-40185639D01*
X48997507Y-40072743D01*
X49252994Y-39925238D01*
X49487042Y-39745646D01*
X49695646Y-39537042D01*
X49875238Y-39302994D01*
X50022743Y-39047507D01*
X50135639Y-38774952D01*
X50211993Y-38489993D01*
X50250500Y-38197506D01*
X50250500Y-35705815D01*
X79175000Y-35705815D01*
X79185407Y-35807673D01*
X79240094Y-35972709D01*
X79240096Y-35972714D01*
X79331370Y-36120691D01*
X79454308Y-36243629D01*
X79602285Y-36334903D01*
X79602290Y-36334905D01*
X79767326Y-36389592D01*
X79869184Y-36399999D01*
X79869197Y-36400000D01*
X79912500Y-36400000D01*
X79912500Y-35450000D01*
X79175000Y-35450000D01*
X79175000Y-35705815D01*
X50250500Y-35705815D01*
X50250500Y-33152486D01*
X58799500Y-33152486D01*
X58799500Y-33447513D01*
X58818790Y-33594026D01*
X58838007Y-33739993D01*
X58910464Y-34010407D01*
X58914361Y-34024951D01*
X58914364Y-34024961D01*
X59027254Y-34297500D01*
X59027258Y-34297510D01*
X59174761Y-34552993D01*
X59354352Y-34787040D01*
X59354358Y-34787047D01*
X59562952Y-34995641D01*
X59562959Y-34995647D01*
X59797006Y-35175238D01*
X60052489Y-35322741D01*
X60052490Y-35322741D01*
X60052493Y-35322743D01*
X60263296Y-35410060D01*
X60291502Y-35421744D01*
X60325048Y-35435639D01*
X60610007Y-35511993D01*
X60902494Y-35550500D01*
X60902501Y-35550500D01*
X70697499Y-35550500D01*
X70697506Y-35550500D01*
X70989993Y-35511993D01*
X71274952Y-35435639D01*
X71547507Y-35322743D01*
X71802994Y-35175238D01*
X72037042Y-34995646D01*
X72245646Y-34787042D01*
X72316899Y-34694184D01*
X79175000Y-34694184D01*
X79175000Y-34950000D01*
X79912500Y-34950000D01*
X79912500Y-34000000D01*
X79869184Y-34000000D01*
X79767326Y-34010407D01*
X79602290Y-34065094D01*
X79602285Y-34065096D01*
X79454308Y-34156370D01*
X79331370Y-34279308D01*
X79240096Y-34427285D01*
X79240094Y-34427290D01*
X79185407Y-34592326D01*
X79175000Y-34694184D01*
X72316899Y-34694184D01*
X72425238Y-34552994D01*
X72572743Y-34297507D01*
X72685639Y-34024952D01*
X72761993Y-33739993D01*
X72800500Y-33447506D01*
X72800500Y-33152494D01*
X72787772Y-33055815D01*
X79175000Y-33055815D01*
X79185407Y-33157673D01*
X79240094Y-33322709D01*
X79240096Y-33322714D01*
X79331370Y-33470691D01*
X79454308Y-33593629D01*
X79602285Y-33684903D01*
X79602290Y-33684905D01*
X79767326Y-33739592D01*
X79869184Y-33749999D01*
X79869197Y-33750000D01*
X79912500Y-33750000D01*
X79912500Y-32800000D01*
X79175000Y-32800000D01*
X79175000Y-33055815D01*
X72787772Y-33055815D01*
X72761993Y-32860007D01*
X72685639Y-32575048D01*
X72671286Y-32540398D01*
X72605913Y-32382573D01*
X72572743Y-32302493D01*
X72556581Y-32274500D01*
X72425238Y-32047006D01*
X72245647Y-31812959D01*
X72245641Y-31812952D01*
X72037047Y-31604358D01*
X72037040Y-31604352D01*
X71802993Y-31424761D01*
X71547510Y-31277258D01*
X71547500Y-31277254D01*
X71274961Y-31164364D01*
X71274954Y-31164362D01*
X71274952Y-31164361D01*
X70989993Y-31088007D01*
X70941113Y-31081571D01*
X70697513Y-31049500D01*
X70697506Y-31049500D01*
X60902494Y-31049500D01*
X60902486Y-31049500D01*
X60624085Y-31086153D01*
X60610007Y-31088007D01*
X60518340Y-31112569D01*
X60325048Y-31164361D01*
X60325038Y-31164364D01*
X60052499Y-31277254D01*
X60052489Y-31277258D01*
X59797006Y-31424761D01*
X59562959Y-31604352D01*
X59562952Y-31604358D01*
X59354358Y-31812952D01*
X59354352Y-31812959D01*
X59174761Y-32047006D01*
X59027258Y-32302489D01*
X59027254Y-32302499D01*
X58914364Y-32575038D01*
X58914361Y-32575048D01*
X58843180Y-32840703D01*
X58838008Y-32860004D01*
X58838006Y-32860015D01*
X58799500Y-33152486D01*
X50250500Y-33152486D01*
X50250500Y-30747844D01*
X73375000Y-30747844D01*
X73381401Y-30807372D01*
X73381403Y-30807379D01*
X73431645Y-30942086D01*
X73431649Y-30942093D01*
X73517809Y-31057187D01*
X73517812Y-31057190D01*
X73632906Y-31143350D01*
X73632913Y-31143354D01*
X73767620Y-31193596D01*
X73767627Y-31193598D01*
X73827155Y-31199999D01*
X73827172Y-31200000D01*
X74150000Y-31200000D01*
X74150000Y-30600000D01*
X73375000Y-30600000D01*
X73375000Y-30747844D01*
X50250500Y-30747844D01*
X50250500Y-29952155D01*
X73375000Y-29952155D01*
X73375000Y-30100000D01*
X74150000Y-30100000D01*
X74150000Y-29500000D01*
X73827155Y-29500000D01*
X73767627Y-29506401D01*
X73767620Y-29506403D01*
X73632913Y-29556645D01*
X73632906Y-29556649D01*
X73517812Y-29642809D01*
X73517809Y-29642812D01*
X73431649Y-29757906D01*
X73431645Y-29757913D01*
X73381403Y-29892620D01*
X73381401Y-29892627D01*
X73375000Y-29952155D01*
X50250500Y-29952155D01*
X50250500Y-28402494D01*
X50249055Y-28391522D01*
X50242393Y-28340914D01*
X50211993Y-28110007D01*
X50135639Y-27825048D01*
X50022743Y-27552493D01*
X49978311Y-27475535D01*
X49875238Y-27297006D01*
X49695647Y-27062959D01*
X49695641Y-27062952D01*
X49487047Y-26854358D01*
X49487040Y-26854352D01*
X49252993Y-26674761D01*
X48997510Y-26527258D01*
X48997500Y-26527254D01*
X48724961Y-26414364D01*
X48724954Y-26414362D01*
X48724952Y-26414361D01*
X48439993Y-26338007D01*
X48391113Y-26331571D01*
X48147513Y-26299500D01*
X48147506Y-26299500D01*
X47852494Y-26299500D01*
X47852486Y-26299500D01*
X47574085Y-26336153D01*
X47560007Y-26338007D01*
X47443764Y-26369154D01*
X47275048Y-26414361D01*
X47275038Y-26414364D01*
X47002499Y-26527254D01*
X47002489Y-26527258D01*
X46747006Y-26674761D01*
X46512959Y-26854352D01*
X46512952Y-26854358D01*
X46304358Y-27062952D01*
X46304352Y-27062959D01*
X46124761Y-27297006D01*
X45977258Y-27552489D01*
X45977254Y-27552499D01*
X45864364Y-27825038D01*
X45864362Y-27825045D01*
X45832077Y-27945534D01*
X45795712Y-28005194D01*
X45732864Y-28035723D01*
X45663489Y-28027428D01*
X45624621Y-28001121D01*
X44761818Y-27138318D01*
X44728333Y-27076995D01*
X44725499Y-27050637D01*
X44725499Y-25877129D01*
X44725498Y-25877123D01*
X44719091Y-25817516D01*
X44668797Y-25682671D01*
X44668793Y-25682664D01*
X44582547Y-25567455D01*
X44582544Y-25567452D01*
X44467335Y-25481206D01*
X44467328Y-25481202D01*
X44332482Y-25430908D01*
X44332483Y-25430908D01*
X44272883Y-25424501D01*
X44272881Y-25424500D01*
X44272873Y-25424500D01*
X44272865Y-25424500D01*
X43382204Y-25424500D01*
X43315165Y-25404815D01*
X43294523Y-25388181D01*
X42775214Y-24868872D01*
X51149500Y-24868872D01*
X51149500Y-25131127D01*
X51175087Y-25325471D01*
X51183730Y-25391116D01*
X51230980Y-25567455D01*
X51251602Y-25644418D01*
X51251605Y-25644428D01*
X51351953Y-25886690D01*
X51351958Y-25886700D01*
X51483075Y-26113803D01*
X51642718Y-26321851D01*
X51642726Y-26321860D01*
X51828140Y-26507274D01*
X51828148Y-26507281D01*
X52036196Y-26666924D01*
X52263299Y-26798041D01*
X52263309Y-26798046D01*
X52505571Y-26898394D01*
X52505581Y-26898398D01*
X52758884Y-26966270D01*
X53018880Y-27000500D01*
X53018887Y-27000500D01*
X59781113Y-27000500D01*
X59781120Y-27000500D01*
X60041116Y-26966270D01*
X60294419Y-26898398D01*
X60536697Y-26798043D01*
X60763803Y-26666924D01*
X60971851Y-26507282D01*
X60971855Y-26507277D01*
X60971860Y-26507274D01*
X61157274Y-26321860D01*
X61157277Y-26321855D01*
X61157282Y-26321851D01*
X61316924Y-26113803D01*
X61448043Y-25886697D01*
X61548398Y-25644419D01*
X61616270Y-25391116D01*
X61650500Y-25131120D01*
X61650500Y-24868880D01*
X61616270Y-24608884D01*
X61548398Y-24355581D01*
X61503193Y-24246446D01*
X61448046Y-24113309D01*
X61448041Y-24113299D01*
X61316924Y-23886196D01*
X61157281Y-23678148D01*
X61157274Y-23678140D01*
X60971860Y-23492726D01*
X60971851Y-23492718D01*
X60763803Y-23333075D01*
X60536700Y-23201958D01*
X60536690Y-23201953D01*
X60294428Y-23101605D01*
X60294421Y-23101603D01*
X60294419Y-23101602D01*
X60041116Y-23033730D01*
X59983339Y-23026123D01*
X59781127Y-22999500D01*
X59781120Y-22999500D01*
X53018880Y-22999500D01*
X53018872Y-22999500D01*
X52787772Y-23029926D01*
X52758884Y-23033730D01*
X52517587Y-23098385D01*
X52505581Y-23101602D01*
X52505571Y-23101605D01*
X52263309Y-23201953D01*
X52263299Y-23201958D01*
X52036196Y-23333075D01*
X51828148Y-23492718D01*
X51642718Y-23678148D01*
X51483075Y-23886196D01*
X51351958Y-24113299D01*
X51351953Y-24113309D01*
X51251605Y-24355571D01*
X51251602Y-24355581D01*
X51186111Y-24600000D01*
X51183730Y-24608885D01*
X51149500Y-24868872D01*
X42775214Y-24868872D01*
X42593023Y-24686681D01*
X42559538Y-24625358D01*
X42564522Y-24555666D01*
X42606394Y-24499733D01*
X42671858Y-24475316D01*
X42680704Y-24475000D01*
X43200000Y-24475000D01*
X43700000Y-24475000D01*
X44272828Y-24475000D01*
X44272844Y-24474999D01*
X44332372Y-24468598D01*
X44332379Y-24468596D01*
X44467086Y-24418354D01*
X44467093Y-24418350D01*
X44582187Y-24332190D01*
X44582190Y-24332187D01*
X44668350Y-24217093D01*
X44668354Y-24217086D01*
X44718596Y-24082379D01*
X44718598Y-24082372D01*
X44724999Y-24022844D01*
X44725000Y-24022827D01*
X44725000Y-23050000D01*
X43700000Y-23050000D01*
X43700000Y-24475000D01*
X43200000Y-24475000D01*
X43200000Y-22924000D01*
X43219685Y-22856961D01*
X43272489Y-22811206D01*
X43324000Y-22800000D01*
X43450000Y-22800000D01*
X43450000Y-22674000D01*
X43469685Y-22606961D01*
X43522489Y-22561206D01*
X43574000Y-22550000D01*
X44725000Y-22550000D01*
X44725000Y-22049500D01*
X44744685Y-21982461D01*
X44797489Y-21936706D01*
X44849000Y-21925500D01*
X72400638Y-21925500D01*
X72467677Y-21945185D01*
X72488319Y-21961819D01*
X74463181Y-23936681D01*
X74496666Y-23998004D01*
X74499500Y-24024362D01*
X74499500Y-24075637D01*
X74479815Y-24142676D01*
X74463181Y-24163318D01*
X72875538Y-25750960D01*
X72875537Y-25750961D01*
X72858409Y-25776597D01*
X72858408Y-25776598D01*
X72776990Y-25898446D01*
X72776983Y-25898459D01*
X72750644Y-25962050D01*
X72750644Y-25962051D01*
X72709105Y-26062333D01*
X72709103Y-26062341D01*
X72675740Y-26230070D01*
X72674500Y-26236309D01*
X72674500Y-26236310D01*
X72674500Y-28031613D01*
X72680913Y-28102192D01*
X72680913Y-28102194D01*
X72680914Y-28102196D01*
X72731522Y-28264606D01*
X72810106Y-28394600D01*
X72819530Y-28410188D01*
X72939811Y-28530469D01*
X72939813Y-28530470D01*
X72939815Y-28530472D01*
X73085394Y-28618478D01*
X73247804Y-28669086D01*
X73318384Y-28675500D01*
X73318387Y-28675500D01*
X73831613Y-28675500D01*
X73831616Y-28675500D01*
X73902196Y-28669086D01*
X74064606Y-28618478D01*
X74210185Y-28530472D01*
X74254211Y-28486446D01*
X74312319Y-28428339D01*
X74373642Y-28394854D01*
X74443334Y-28399838D01*
X74487681Y-28428339D01*
X74589811Y-28530469D01*
X74589813Y-28530470D01*
X74589815Y-28530472D01*
X74614650Y-28545485D01*
X74661837Y-28597010D01*
X74674500Y-28651601D01*
X74674500Y-29424138D01*
X74654815Y-29491177D01*
X74650000Y-29497152D01*
X74650000Y-31200000D01*
X74972828Y-31200000D01*
X74972844Y-31199999D01*
X75032372Y-31193598D01*
X75032376Y-31193597D01*
X75167270Y-31143284D01*
X75236961Y-31138300D01*
X75298282Y-31171782D01*
X75298285Y-31171785D01*
X75638181Y-31511681D01*
X75671666Y-31573004D01*
X75674500Y-31599361D01*
X75674500Y-31697869D01*
X75674501Y-31697876D01*
X75680908Y-31757483D01*
X75731202Y-31892328D01*
X75731206Y-31892335D01*
X75817452Y-32007544D01*
X75817455Y-32007547D01*
X75932664Y-32093793D01*
X75932671Y-32093797D01*
X75977618Y-32110561D01*
X76067517Y-32144091D01*
X76127127Y-32150500D01*
X76375501Y-32150499D01*
X76422951Y-32159937D01*
X76437329Y-32165892D01*
X76437334Y-32165894D01*
X76437338Y-32165894D01*
X76437339Y-32165895D01*
X76611305Y-32200500D01*
X76611308Y-32200500D01*
X77238693Y-32200500D01*
X77238694Y-32200499D01*
X77412666Y-32165895D01*
X77418371Y-32163531D01*
X77427046Y-32159939D01*
X77474498Y-32150500D01*
X79051000Y-32150500D01*
X79118039Y-32170185D01*
X79163794Y-32222989D01*
X79175000Y-32274500D01*
X79175000Y-32300000D01*
X80038500Y-32300000D01*
X80105539Y-32319685D01*
X80151294Y-32372489D01*
X80162500Y-32424000D01*
X80162500Y-32550000D01*
X80288500Y-32550000D01*
X80355539Y-32569685D01*
X80401294Y-32622489D01*
X80412500Y-32674000D01*
X80412500Y-33750000D01*
X80455803Y-33750000D01*
X80455815Y-33749999D01*
X80557673Y-33739592D01*
X80722709Y-33684905D01*
X80722714Y-33684903D01*
X80870691Y-33593629D01*
X80993628Y-33470692D01*
X80994159Y-33469832D01*
X80994680Y-33469363D01*
X80998112Y-33465023D01*
X80998853Y-33465608D01*
X81046101Y-33423102D01*
X81115063Y-33411872D01*
X81179148Y-33439708D01*
X81201413Y-33465398D01*
X81201493Y-33465336D01*
X81202890Y-33467103D01*
X81205238Y-33469812D01*
X81205968Y-33470995D01*
X81205974Y-33471003D01*
X81328996Y-33594025D01*
X81329000Y-33594028D01*
X81477066Y-33685357D01*
X81477069Y-33685358D01*
X81477075Y-33685362D01*
X81642225Y-33740087D01*
X81744152Y-33750500D01*
X81914139Y-33750500D01*
X81981178Y-33770185D01*
X82026933Y-33822989D01*
X82036877Y-33892147D01*
X82007852Y-33955703D01*
X82001820Y-33962181D01*
X82000820Y-33963181D01*
X81939497Y-33996666D01*
X81913139Y-33999500D01*
X81744144Y-33999500D01*
X81642223Y-34009913D01*
X81477077Y-34064637D01*
X81477066Y-34064642D01*
X81329000Y-34155971D01*
X81328996Y-34155974D01*
X81205974Y-34278996D01*
X81205967Y-34279005D01*
X81205234Y-34280194D01*
X81204519Y-34280836D01*
X81201493Y-34284664D01*
X81200838Y-34284146D01*
X81153280Y-34326911D01*
X81084316Y-34338123D01*
X81020238Y-34310271D01*
X80998238Y-34284877D01*
X80998112Y-34284977D01*
X80995885Y-34282161D01*
X80994163Y-34280173D01*
X80993630Y-34279309D01*
X80870691Y-34156370D01*
X80722714Y-34065096D01*
X80722709Y-34065094D01*
X80557673Y-34010407D01*
X80455815Y-34000000D01*
X80412500Y-34000000D01*
X80412500Y-36400000D01*
X80455803Y-36400000D01*
X80455815Y-36399999D01*
X80557673Y-36389592D01*
X80722709Y-36334905D01*
X80722714Y-36334903D01*
X80870691Y-36243629D01*
X80993628Y-36120692D01*
X80994159Y-36119832D01*
X80994680Y-36119363D01*
X80998112Y-36115023D01*
X80998853Y-36115608D01*
X81046101Y-36073102D01*
X81115063Y-36061872D01*
X81179148Y-36089708D01*
X81201413Y-36115398D01*
X81201493Y-36115336D01*
X81202890Y-36117103D01*
X81205238Y-36119812D01*
X81205968Y-36120995D01*
X81205974Y-36121003D01*
X81328996Y-36244025D01*
X81329000Y-36244028D01*
X81477066Y-36335357D01*
X81477069Y-36335358D01*
X81477075Y-36335362D01*
X81642225Y-36390087D01*
X81744152Y-36400500D01*
X81744157Y-36400500D01*
X82330843Y-36400500D01*
X82330848Y-36400500D01*
X82432775Y-36390087D01*
X82597925Y-36335362D01*
X82746003Y-36244026D01*
X82869026Y-36121003D01*
X82960362Y-35972925D01*
X83015087Y-35807775D01*
X83025500Y-35705848D01*
X83025500Y-35536861D01*
X83045185Y-35469822D01*
X83061819Y-35449180D01*
X83337819Y-35173180D01*
X83399142Y-35139695D01*
X83468834Y-35144679D01*
X83524767Y-35186551D01*
X83549184Y-35252015D01*
X83549500Y-35260861D01*
X83549500Y-37934108D01*
X83549500Y-38000000D01*
X83549500Y-38151252D01*
X83585963Y-38451551D01*
X83595439Y-38489995D01*
X83658358Y-38745272D01*
X83765628Y-39028117D01*
X83906206Y-39295964D01*
X83906212Y-39295973D01*
X84078047Y-39544921D01*
X84078052Y-39544927D01*
X84278646Y-39771351D01*
X84278648Y-39771353D01*
X84505072Y-39971947D01*
X84505078Y-39971952D01*
X84754026Y-40143787D01*
X84754033Y-40143792D01*
X85021882Y-40284371D01*
X85304727Y-40391641D01*
X85304731Y-40391642D01*
X85304734Y-40391643D01*
X85598449Y-40464037D01*
X85849661Y-40494539D01*
X85898746Y-40500500D01*
X85898748Y-40500500D01*
X89951254Y-40500500D01*
X89996630Y-40494990D01*
X90251551Y-40464037D01*
X90545266Y-40391643D01*
X90545269Y-40391641D01*
X90545272Y-40391641D01*
X90648007Y-40352678D01*
X90828113Y-40284373D01*
X90839355Y-40278473D01*
X91095967Y-40143792D01*
X91344924Y-39971950D01*
X91571352Y-39771352D01*
X91771950Y-39544924D01*
X91943792Y-39295967D01*
X92084373Y-39028113D01*
X92191643Y-38745266D01*
X92264037Y-38451551D01*
X92300500Y-38151252D01*
X92300500Y-38000000D01*
X92300500Y-37934108D01*
X92300500Y-30934108D01*
X92300500Y-30848748D01*
X92264037Y-30548449D01*
X92191643Y-30254734D01*
X92191642Y-30254731D01*
X92191641Y-30254727D01*
X92087906Y-29981204D01*
X92084373Y-29971887D01*
X92084372Y-29971886D01*
X92084371Y-29971882D01*
X91943793Y-29704035D01*
X91943787Y-29704026D01*
X91771952Y-29455078D01*
X91771947Y-29455072D01*
X91571353Y-29228648D01*
X91571351Y-29228646D01*
X91344927Y-29028052D01*
X91344921Y-29028047D01*
X91095973Y-28856212D01*
X91095964Y-28856206D01*
X90828117Y-28715628D01*
X90545272Y-28608358D01*
X90401731Y-28572979D01*
X90251551Y-28535963D01*
X90017517Y-28507546D01*
X89951254Y-28499500D01*
X89951252Y-28499500D01*
X89865892Y-28499500D01*
X86115892Y-28499500D01*
X86050000Y-28499500D01*
X85898748Y-28499500D01*
X85898746Y-28499500D01*
X85751897Y-28517331D01*
X85598449Y-28535963D01*
X85479602Y-28565255D01*
X85304727Y-28608358D01*
X85021882Y-28715628D01*
X84754035Y-28856206D01*
X84754026Y-28856212D01*
X84505078Y-29028047D01*
X84505072Y-29028052D01*
X84278651Y-29228643D01*
X84216054Y-29299301D01*
X84156864Y-29336427D01*
X84086999Y-29335659D01*
X84028639Y-29297241D01*
X84001622Y-29241265D01*
X83990895Y-29187334D01*
X83932905Y-29047334D01*
X83923013Y-29023453D01*
X83838486Y-28896950D01*
X83819970Y-28852248D01*
X83819086Y-28847806D01*
X83819086Y-28847804D01*
X83768478Y-28685394D01*
X83762497Y-28675500D01*
X83750778Y-28656114D01*
X83732942Y-28588560D01*
X83754460Y-28522086D01*
X83769209Y-28504289D01*
X86686681Y-25586818D01*
X86748004Y-25553333D01*
X86774362Y-25550499D01*
X87600002Y-25550499D01*
X87600008Y-25550499D01*
X87702797Y-25539999D01*
X87869334Y-25484814D01*
X88018656Y-25392712D01*
X88142712Y-25268656D01*
X88234814Y-25119334D01*
X88289999Y-24952797D01*
X88300500Y-24850009D01*
X88300499Y-23249992D01*
X88300305Y-23248097D01*
X88289999Y-23147203D01*
X88289998Y-23147200D01*
X88286041Y-23135258D01*
X91499500Y-23135258D01*
X91499500Y-23364741D01*
X91520070Y-23520974D01*
X91529452Y-23592238D01*
X91552472Y-23678149D01*
X91588842Y-23813887D01*
X91676650Y-24025876D01*
X91676657Y-24025890D01*
X91791392Y-24224617D01*
X91931081Y-24406661D01*
X91931089Y-24406670D01*
X92093330Y-24568911D01*
X92093338Y-24568918D01*
X92275382Y-24708607D01*
X92275385Y-24708608D01*
X92275388Y-24708611D01*
X92474112Y-24823344D01*
X92474117Y-24823346D01*
X92474123Y-24823349D01*
X92565480Y-24861190D01*
X92686113Y-24911158D01*
X92907762Y-24970548D01*
X93135266Y-25000500D01*
X93135273Y-25000500D01*
X93364727Y-25000500D01*
X93364734Y-25000500D01*
X93592238Y-24970548D01*
X93813887Y-24911158D01*
X94025888Y-24823344D01*
X94224612Y-24708611D01*
X94406661Y-24568919D01*
X94406665Y-24568914D01*
X94406670Y-24568911D01*
X94568911Y-24406670D01*
X94568914Y-24406665D01*
X94568919Y-24406661D01*
X94708611Y-24224612D01*
X94823344Y-24025888D01*
X94911158Y-23813887D01*
X94970548Y-23592238D01*
X95000500Y-23364734D01*
X95000500Y-23135266D01*
X94970548Y-22907762D01*
X94911158Y-22686113D01*
X94823344Y-22474112D01*
X94708611Y-22275388D01*
X94708608Y-22275385D01*
X94708607Y-22275382D01*
X94568918Y-22093338D01*
X94568911Y-22093330D01*
X94406670Y-21931089D01*
X94406661Y-21931081D01*
X94224617Y-21791392D01*
X94204187Y-21779597D01*
X94025888Y-21676656D01*
X94025876Y-21676650D01*
X93813887Y-21588842D01*
X93592238Y-21529452D01*
X93554215Y-21524446D01*
X93364741Y-21499500D01*
X93364734Y-21499500D01*
X93135266Y-21499500D01*
X93135258Y-21499500D01*
X92918715Y-21528009D01*
X92907762Y-21529452D01*
X92870288Y-21539493D01*
X92686112Y-21588842D01*
X92474123Y-21676650D01*
X92474109Y-21676657D01*
X92275382Y-21791392D01*
X92093338Y-21931081D01*
X91931081Y-22093338D01*
X91791392Y-22275382D01*
X91676657Y-22474109D01*
X91676650Y-22474123D01*
X91588842Y-22686112D01*
X91529453Y-22907759D01*
X91529451Y-22907770D01*
X91499500Y-23135258D01*
X88286041Y-23135258D01*
X88273822Y-23098385D01*
X88234814Y-22980666D01*
X88142712Y-22831344D01*
X88018656Y-22707288D01*
X87869334Y-22615186D01*
X87702797Y-22560001D01*
X87702795Y-22560000D01*
X87600010Y-22549500D01*
X86299998Y-22549500D01*
X86299981Y-22549501D01*
X86197203Y-22560000D01*
X86197200Y-22560001D01*
X86030668Y-22615185D01*
X86030663Y-22615187D01*
X85881342Y-22707289D01*
X85757289Y-22831342D01*
X85661821Y-22986121D01*
X85609873Y-23032845D01*
X85540910Y-23044068D01*
X85476828Y-23016224D01*
X85468601Y-23008705D01*
X85329786Y-22869890D01*
X85157820Y-22744951D01*
X84968414Y-22648444D01*
X84968413Y-22648443D01*
X84968412Y-22648443D01*
X84766243Y-22582754D01*
X84766241Y-22582753D01*
X84766240Y-22582753D01*
X84598096Y-22556122D01*
X84556287Y-22549500D01*
X84343713Y-22549500D01*
X84301904Y-22556122D01*
X84133760Y-22582753D01*
X83931585Y-22648444D01*
X83742179Y-22744951D01*
X83570213Y-22869890D01*
X83419892Y-23020211D01*
X83363097Y-23098385D01*
X83307767Y-23141051D01*
X83262779Y-23149500D01*
X79780301Y-23149500D01*
X79713262Y-23129815D01*
X79667507Y-23077011D01*
X79662595Y-23064504D01*
X79655823Y-23044068D01*
X79634814Y-22980666D01*
X79542712Y-22831344D01*
X79418656Y-22707288D01*
X79269334Y-22615186D01*
X79102797Y-22560001D01*
X79102795Y-22560000D01*
X79000010Y-22549500D01*
X77699998Y-22549500D01*
X77699981Y-22549501D01*
X77597203Y-22560000D01*
X77597200Y-22560001D01*
X77430668Y-22615185D01*
X77430663Y-22615187D01*
X77281342Y-22707289D01*
X77157289Y-22831342D01*
X77061821Y-22986121D01*
X77009873Y-23032845D01*
X76940910Y-23044068D01*
X76876828Y-23016224D01*
X76868601Y-23008705D01*
X76729786Y-22869890D01*
X76557820Y-22744951D01*
X76368414Y-22648444D01*
X76368413Y-22648443D01*
X76368412Y-22648443D01*
X76166243Y-22582754D01*
X76166241Y-22582753D01*
X76166240Y-22582753D01*
X75998096Y-22556122D01*
X75956287Y-22549500D01*
X75743713Y-22549500D01*
X75701905Y-22556121D01*
X75632613Y-22547166D01*
X75594829Y-22521329D01*
X73785154Y-20711654D01*
X73751669Y-20650331D01*
X73756653Y-20580639D01*
X73798525Y-20524706D01*
X73863989Y-20500289D01*
X73872834Y-20499973D01*
X93282360Y-20500500D01*
X93289246Y-20500694D01*
X93552804Y-20515496D01*
X93566606Y-20517051D01*
X93856857Y-20566366D01*
X93870411Y-20569459D01*
X93909216Y-20580639D01*
X94153316Y-20650963D01*
X94166442Y-20655556D01*
X94438438Y-20768221D01*
X94450960Y-20774252D01*
X94708629Y-20916662D01*
X94720402Y-20924059D01*
X94960506Y-21094421D01*
X94971378Y-21103091D01*
X95190899Y-21299267D01*
X95200732Y-21309100D01*
X95396908Y-21528621D01*
X95405578Y-21539493D01*
X95575940Y-21779597D01*
X95583337Y-21791370D01*
X95725747Y-22049039D01*
X95731781Y-22061568D01*
X95844443Y-22333558D01*
X95849036Y-22346683D01*
X95930539Y-22629586D01*
X95933633Y-22643143D01*
X95982947Y-22933384D01*
X95984504Y-22947202D01*
X95999301Y-23210689D01*
X95999496Y-23217630D01*
X96001402Y-43248416D01*
X96001207Y-43255381D01*
X95984504Y-43552796D01*
X95982947Y-43566614D01*
X95933633Y-43856856D01*
X95930539Y-43870413D01*
X95849036Y-44153316D01*
X95844443Y-44166441D01*
X95731781Y-44438431D01*
X95725747Y-44450960D01*
X95583337Y-44708629D01*
X95575940Y-44720402D01*
X95405578Y-44960506D01*
X95396908Y-44971378D01*
X95200732Y-45190899D01*
X95190899Y-45200732D01*
X94971378Y-45396908D01*
X94960506Y-45405578D01*
X94720402Y-45575940D01*
X94708629Y-45583337D01*
X94450960Y-45725747D01*
X94438431Y-45731781D01*
X94166441Y-45844443D01*
X94153316Y-45849036D01*
X93870413Y-45930539D01*
X93856856Y-45933633D01*
X93566614Y-45982947D01*
X93552796Y-45984504D01*
X93255375Y-46001208D01*
X93248422Y-46001403D01*
X23251578Y-46001403D01*
X23244625Y-46001208D01*
X22947203Y-45984504D01*
X22933385Y-45982947D01*
X22643143Y-45933633D01*
X22629586Y-45930539D01*
X22346683Y-45849036D01*
X22333558Y-45844443D01*
X22061568Y-45731781D01*
X22049039Y-45725747D01*
X21791370Y-45583337D01*
X21779597Y-45575940D01*
X21539493Y-45405578D01*
X21528621Y-45396908D01*
X21309100Y-45200732D01*
X21299267Y-45190899D01*
X21103091Y-44971378D01*
X21094421Y-44960506D01*
X20924059Y-44720402D01*
X20916662Y-44708629D01*
X20774252Y-44450960D01*
X20768221Y-44438438D01*
X20655556Y-44166441D01*
X20650963Y-44153316D01*
X20569460Y-43870413D01*
X20566366Y-43856856D01*
X20563418Y-43839505D01*
X20517051Y-43566606D01*
X20515496Y-43552805D01*
X20498792Y-43255375D01*
X20498597Y-43248422D01*
X20498597Y-43135258D01*
X21499500Y-43135258D01*
X21499500Y-43364741D01*
X21517035Y-43497924D01*
X21529452Y-43592238D01*
X21572141Y-43751557D01*
X21588842Y-43813887D01*
X21676650Y-44025876D01*
X21676657Y-44025890D01*
X21791392Y-44224617D01*
X21931081Y-44406661D01*
X21931089Y-44406670D01*
X22093330Y-44568911D01*
X22093338Y-44568918D01*
X22275382Y-44708607D01*
X22275385Y-44708608D01*
X22275388Y-44708611D01*
X22474112Y-44823344D01*
X22474117Y-44823346D01*
X22474123Y-44823349D01*
X22556287Y-44857382D01*
X22686113Y-44911158D01*
X22907762Y-44970548D01*
X23135266Y-45000500D01*
X23135273Y-45000500D01*
X23364727Y-45000500D01*
X23364734Y-45000500D01*
X23592238Y-44970548D01*
X23813887Y-44911158D01*
X24025888Y-44823344D01*
X24224612Y-44708611D01*
X24406661Y-44568919D01*
X24406665Y-44568914D01*
X24406670Y-44568911D01*
X24568911Y-44406670D01*
X24568914Y-44406665D01*
X24568919Y-44406661D01*
X24708611Y-44224612D01*
X24823344Y-44025888D01*
X24911158Y-43813887D01*
X24970548Y-43592238D01*
X25000500Y-43364734D01*
X25000500Y-43135266D01*
X24970548Y-42907762D01*
X24911158Y-42686113D01*
X24854777Y-42549997D01*
X37895034Y-42549997D01*
X37895034Y-42550002D01*
X37914858Y-42776599D01*
X37914860Y-42776610D01*
X37973730Y-42996317D01*
X37973735Y-42996331D01*
X38069863Y-43202478D01*
X38120974Y-43275472D01*
X38800000Y-42596446D01*
X38800000Y-42602661D01*
X38827259Y-42704394D01*
X38879920Y-42795606D01*
X38954394Y-42870080D01*
X39045606Y-42922741D01*
X39147339Y-42950000D01*
X39153553Y-42950000D01*
X38474526Y-43629025D01*
X38547513Y-43680132D01*
X38547521Y-43680136D01*
X38753668Y-43776264D01*
X38753682Y-43776269D01*
X38973389Y-43835139D01*
X38973400Y-43835141D01*
X39199998Y-43854966D01*
X39200002Y-43854966D01*
X39426599Y-43835141D01*
X39426610Y-43835139D01*
X39646317Y-43776269D01*
X39646331Y-43776264D01*
X39852478Y-43680136D01*
X39925471Y-43629024D01*
X39246447Y-42950000D01*
X39252661Y-42950000D01*
X39354394Y-42922741D01*
X39445606Y-42870080D01*
X39520080Y-42795606D01*
X39572741Y-42704394D01*
X39600000Y-42602661D01*
X39600000Y-42596447D01*
X40279024Y-43275471D01*
X40330136Y-43202478D01*
X40426264Y-42996331D01*
X40426269Y-42996317D01*
X40485139Y-42776610D01*
X40485141Y-42776599D01*
X40504966Y-42550002D01*
X40504966Y-42549997D01*
X40485141Y-42323400D01*
X40485139Y-42323389D01*
X40426269Y-42103682D01*
X40426264Y-42103668D01*
X40330136Y-41897521D01*
X40330132Y-41897513D01*
X40279025Y-41824526D01*
X39600000Y-42503551D01*
X39600000Y-42497339D01*
X39572741Y-42395606D01*
X39520080Y-42304394D01*
X39445606Y-42229920D01*
X39354394Y-42177259D01*
X39252661Y-42150000D01*
X39246445Y-42150000D01*
X39925472Y-41470974D01*
X39852478Y-41419863D01*
X39702654Y-41349999D01*
X51165654Y-41349999D01*
X51165655Y-41350000D01*
X52716988Y-41350000D01*
X52684075Y-41407007D01*
X52650000Y-41534174D01*
X52650000Y-41665826D01*
X52684075Y-41792993D01*
X52716988Y-41850000D01*
X51165655Y-41850000D01*
X51184221Y-41991016D01*
X51252075Y-42244255D01*
X51352404Y-42486471D01*
X51352409Y-42486482D01*
X51483496Y-42713528D01*
X51643092Y-42921519D01*
X51643098Y-42921526D01*
X51828473Y-43106901D01*
X51828480Y-43106907D01*
X52036471Y-43266503D01*
X52263517Y-43397590D01*
X52263528Y-43397595D01*
X52505744Y-43497924D01*
X52758979Y-43565777D01*
X52758990Y-43565779D01*
X53018905Y-43599999D01*
X53018920Y-43600000D01*
X56150000Y-43600000D01*
X56150000Y-42100000D01*
X56650000Y-42100000D01*
X56650000Y-43600000D01*
X59781080Y-43600000D01*
X59781094Y-43599999D01*
X60041009Y-43565779D01*
X60041020Y-43565777D01*
X60294255Y-43497924D01*
X60536471Y-43397595D01*
X60536482Y-43397590D01*
X60763528Y-43266503D01*
X60971519Y-43106907D01*
X60971526Y-43106901D01*
X61156901Y-42921526D01*
X61156907Y-42921519D01*
X61316503Y-42713528D01*
X61447590Y-42486482D01*
X61447595Y-42486471D01*
X61547924Y-42244255D01*
X61615778Y-41991016D01*
X61634345Y-41850000D01*
X60083012Y-41850000D01*
X60115925Y-41792993D01*
X60150000Y-41665826D01*
X60150000Y-41550013D01*
X74550000Y-41550013D01*
X74550000Y-42100000D01*
X75466988Y-42100000D01*
X75434075Y-42157007D01*
X75400000Y-42284174D01*
X75400000Y-42415826D01*
X75434075Y-42542993D01*
X75466988Y-42600000D01*
X74550001Y-42600000D01*
X74550001Y-43149986D01*
X74560494Y-43252697D01*
X74615641Y-43419119D01*
X74615643Y-43419124D01*
X74707684Y-43568345D01*
X74831654Y-43692315D01*
X74980875Y-43784356D01*
X74980880Y-43784358D01*
X75147302Y-43839505D01*
X75147309Y-43839506D01*
X75250019Y-43849999D01*
X75649999Y-43849999D01*
X75650000Y-43849998D01*
X75650000Y-42783012D01*
X75707007Y-42815925D01*
X75834174Y-42850000D01*
X75965826Y-42850000D01*
X76092993Y-42815925D01*
X76150000Y-42783012D01*
X76150000Y-43849999D01*
X76549972Y-43849999D01*
X76549986Y-43849998D01*
X76652697Y-43839505D01*
X76819119Y-43784358D01*
X76819124Y-43784356D01*
X76968345Y-43692315D01*
X77092317Y-43568343D01*
X77187815Y-43413516D01*
X77239763Y-43366791D01*
X77308725Y-43355568D01*
X77372808Y-43383412D01*
X77381035Y-43390931D01*
X77520213Y-43530109D01*
X77692179Y-43655048D01*
X77692181Y-43655049D01*
X77692184Y-43655051D01*
X77881588Y-43751557D01*
X78083757Y-43817246D01*
X78293713Y-43850500D01*
X78293714Y-43850500D01*
X78506286Y-43850500D01*
X78506287Y-43850500D01*
X78716243Y-43817246D01*
X78918412Y-43751557D01*
X79107816Y-43655051D01*
X79194269Y-43592240D01*
X79279786Y-43530109D01*
X79279788Y-43530106D01*
X79279792Y-43530104D01*
X79430104Y-43379792D01*
X79430106Y-43379788D01*
X79430109Y-43379786D01*
X79555048Y-43207820D01*
X79555047Y-43207820D01*
X79555051Y-43207816D01*
X79592021Y-43135258D01*
X91499500Y-43135258D01*
X91499500Y-43364741D01*
X91517035Y-43497924D01*
X91529452Y-43592238D01*
X91572141Y-43751557D01*
X91588842Y-43813887D01*
X91676650Y-44025876D01*
X91676657Y-44025890D01*
X91791392Y-44224617D01*
X91931081Y-44406661D01*
X91931089Y-44406670D01*
X92093330Y-44568911D01*
X92093338Y-44568918D01*
X92275382Y-44708607D01*
X92275385Y-44708608D01*
X92275388Y-44708611D01*
X92474112Y-44823344D01*
X92474117Y-44823346D01*
X92474123Y-44823349D01*
X92556287Y-44857382D01*
X92686113Y-44911158D01*
X92907762Y-44970548D01*
X93135266Y-45000500D01*
X93135273Y-45000500D01*
X93364727Y-45000500D01*
X93364734Y-45000500D01*
X93592238Y-44970548D01*
X93813887Y-44911158D01*
X94025888Y-44823344D01*
X94224612Y-44708611D01*
X94406661Y-44568919D01*
X94406665Y-44568914D01*
X94406670Y-44568911D01*
X94568911Y-44406670D01*
X94568914Y-44406665D01*
X94568919Y-44406661D01*
X94708611Y-44224612D01*
X94823344Y-44025888D01*
X94911158Y-43813887D01*
X94970548Y-43592238D01*
X95000500Y-43364734D01*
X95000500Y-43135266D01*
X94970548Y-42907762D01*
X94911158Y-42686113D01*
X94828468Y-42486482D01*
X94823349Y-42474123D01*
X94823346Y-42474117D01*
X94823344Y-42474112D01*
X94708611Y-42275388D01*
X94708608Y-42275385D01*
X94708607Y-42275382D01*
X94607764Y-42143962D01*
X94568919Y-42093339D01*
X94568918Y-42093338D01*
X94568911Y-42093330D01*
X94406670Y-41931089D01*
X94406661Y-41931081D01*
X94224617Y-41791392D01*
X94025890Y-41676657D01*
X94025876Y-41676650D01*
X93813887Y-41588842D01*
X93592238Y-41529452D01*
X93554215Y-41524446D01*
X93364741Y-41499500D01*
X93364734Y-41499500D01*
X93135266Y-41499500D01*
X93135258Y-41499500D01*
X92918715Y-41528009D01*
X92907762Y-41529452D01*
X92814076Y-41554554D01*
X92686112Y-41588842D01*
X92474123Y-41676650D01*
X92474109Y-41676657D01*
X92275382Y-41791392D01*
X92093338Y-41931081D01*
X91931081Y-42093338D01*
X91791392Y-42275382D01*
X91676657Y-42474109D01*
X91676650Y-42474123D01*
X91588842Y-42686112D01*
X91529453Y-42907759D01*
X91529451Y-42907770D01*
X91499500Y-43135258D01*
X79592021Y-43135258D01*
X79651557Y-43018412D01*
X79717246Y-42816243D01*
X79750500Y-42606287D01*
X79750500Y-42093713D01*
X79717246Y-41883757D01*
X79651557Y-41681588D01*
X79555051Y-41492184D01*
X79555049Y-41492181D01*
X79555048Y-41492179D01*
X79430109Y-41320213D01*
X79279786Y-41169890D01*
X79107820Y-41044951D01*
X78918414Y-40948444D01*
X78918413Y-40948443D01*
X78918412Y-40948443D01*
X78716243Y-40882754D01*
X78716241Y-40882753D01*
X78716240Y-40882753D01*
X78554957Y-40857208D01*
X78506287Y-40849500D01*
X78293713Y-40849500D01*
X78245042Y-40857208D01*
X78083760Y-40882753D01*
X77881585Y-40948444D01*
X77692179Y-41044951D01*
X77520215Y-41169889D01*
X77381035Y-41309069D01*
X77319712Y-41342553D01*
X77250020Y-41337569D01*
X77194087Y-41295697D01*
X77187815Y-41286484D01*
X77092315Y-41131654D01*
X76968345Y-41007684D01*
X76819124Y-40915643D01*
X76819119Y-40915641D01*
X76652697Y-40860494D01*
X76652690Y-40860493D01*
X76549986Y-40850000D01*
X76150000Y-40850000D01*
X76150000Y-41916988D01*
X76092993Y-41884075D01*
X75965826Y-41850000D01*
X75834174Y-41850000D01*
X75707007Y-41884075D01*
X75650000Y-41916988D01*
X75650000Y-40850000D01*
X75250028Y-40850000D01*
X75250012Y-40850001D01*
X75147302Y-40860494D01*
X74980880Y-40915641D01*
X74980875Y-40915643D01*
X74831654Y-41007684D01*
X74707684Y-41131654D01*
X74615643Y-41280875D01*
X74615641Y-41280880D01*
X74560494Y-41447302D01*
X74560493Y-41447309D01*
X74550000Y-41550013D01*
X60150000Y-41550013D01*
X60150000Y-41534174D01*
X60115925Y-41407007D01*
X60083012Y-41350000D01*
X61634345Y-41350000D01*
X61634345Y-41349999D01*
X61615778Y-41208983D01*
X61547924Y-40955744D01*
X61447595Y-40713528D01*
X61447590Y-40713517D01*
X61316503Y-40486471D01*
X61156907Y-40278480D01*
X61156901Y-40278473D01*
X60971526Y-40093098D01*
X60971519Y-40093092D01*
X60763528Y-39933496D01*
X60536482Y-39802409D01*
X60536471Y-39802404D01*
X60294255Y-39702075D01*
X60041020Y-39634222D01*
X60041009Y-39634220D01*
X59781094Y-39600000D01*
X56650000Y-39600000D01*
X56650000Y-41100000D01*
X56150000Y-41100000D01*
X56150000Y-39600000D01*
X53018905Y-39600000D01*
X52758990Y-39634220D01*
X52758979Y-39634222D01*
X52505744Y-39702075D01*
X52263528Y-39802404D01*
X52263517Y-39802409D01*
X52036471Y-39933496D01*
X51828480Y-40093092D01*
X51828473Y-40093098D01*
X51643098Y-40278473D01*
X51643092Y-40278480D01*
X51483496Y-40486471D01*
X51352409Y-40713517D01*
X51352404Y-40713528D01*
X51252075Y-40955744D01*
X51184221Y-41208983D01*
X51165654Y-41349999D01*
X39702654Y-41349999D01*
X39646331Y-41323735D01*
X39646317Y-41323730D01*
X39426610Y-41264860D01*
X39426599Y-41264858D01*
X39200002Y-41245034D01*
X39199998Y-41245034D01*
X38973400Y-41264858D01*
X38973389Y-41264860D01*
X38753682Y-41323730D01*
X38753673Y-41323734D01*
X38547516Y-41419866D01*
X38547512Y-41419868D01*
X38474526Y-41470973D01*
X38474526Y-41470974D01*
X39153553Y-42150000D01*
X39147339Y-42150000D01*
X39045606Y-42177259D01*
X38954394Y-42229920D01*
X38879920Y-42304394D01*
X38827259Y-42395606D01*
X38800000Y-42497339D01*
X38800000Y-42503552D01*
X38120974Y-41824526D01*
X38120973Y-41824526D01*
X38069868Y-41897512D01*
X38069866Y-41897516D01*
X37973734Y-42103673D01*
X37973730Y-42103682D01*
X37914860Y-42323389D01*
X37914858Y-42323400D01*
X37895034Y-42549997D01*
X24854777Y-42549997D01*
X24828468Y-42486482D01*
X24823349Y-42474123D01*
X24823346Y-42474117D01*
X24823344Y-42474112D01*
X24708611Y-42275388D01*
X24708608Y-42275385D01*
X24708607Y-42275382D01*
X24607764Y-42143962D01*
X24568919Y-42093339D01*
X24568918Y-42093338D01*
X24568911Y-42093330D01*
X24406670Y-41931089D01*
X24406661Y-41931081D01*
X24224617Y-41791392D01*
X24025890Y-41676657D01*
X24025876Y-41676650D01*
X23813887Y-41588842D01*
X23592238Y-41529452D01*
X23554215Y-41524446D01*
X23364741Y-41499500D01*
X23364734Y-41499500D01*
X23135266Y-41499500D01*
X23135258Y-41499500D01*
X22918715Y-41528009D01*
X22907762Y-41529452D01*
X22814076Y-41554554D01*
X22686112Y-41588842D01*
X22474123Y-41676650D01*
X22474109Y-41676657D01*
X22275382Y-41791392D01*
X22093338Y-41931081D01*
X21931081Y-42093338D01*
X21791392Y-42275382D01*
X21676657Y-42474109D01*
X21676650Y-42474123D01*
X21588842Y-42686112D01*
X21529453Y-42907759D01*
X21529451Y-42907770D01*
X21499500Y-43135258D01*
X20498597Y-43135258D01*
X20498597Y-30848748D01*
X23649500Y-30848748D01*
X23649500Y-30934108D01*
X23649500Y-37934108D01*
X23649500Y-38000000D01*
X23649500Y-38151252D01*
X23685963Y-38451551D01*
X23695439Y-38489995D01*
X23758358Y-38745272D01*
X23865628Y-39028117D01*
X24006206Y-39295964D01*
X24006212Y-39295973D01*
X24178047Y-39544921D01*
X24178052Y-39544927D01*
X24378646Y-39771351D01*
X24378648Y-39771353D01*
X24605072Y-39971947D01*
X24605078Y-39971952D01*
X24854026Y-40143787D01*
X24854033Y-40143792D01*
X25121882Y-40284371D01*
X25404727Y-40391641D01*
X25404731Y-40391642D01*
X25404734Y-40391643D01*
X25698449Y-40464037D01*
X25949661Y-40494539D01*
X25998746Y-40500500D01*
X25998748Y-40500500D01*
X30051254Y-40500500D01*
X30096630Y-40494990D01*
X30351551Y-40464037D01*
X30645266Y-40391643D01*
X30645269Y-40391641D01*
X30645272Y-40391641D01*
X30748007Y-40352678D01*
X30928113Y-40284373D01*
X30939355Y-40278473D01*
X31195967Y-40143792D01*
X31444924Y-39971950D01*
X31671352Y-39771352D01*
X31871950Y-39544924D01*
X32043792Y-39295967D01*
X32184373Y-39028113D01*
X32291643Y-38745266D01*
X32364037Y-38451551D01*
X32400500Y-38151252D01*
X32400500Y-38000000D01*
X32400500Y-37934108D01*
X32400500Y-30934108D01*
X32400500Y-30848748D01*
X32364037Y-30548449D01*
X32291643Y-30254734D01*
X32291642Y-30254731D01*
X32291641Y-30254727D01*
X32187906Y-29981204D01*
X32184373Y-29971887D01*
X32184372Y-29971886D01*
X32184371Y-29971882D01*
X32043793Y-29704035D01*
X32043787Y-29704026D01*
X31871952Y-29455078D01*
X31871947Y-29455072D01*
X31671353Y-29228648D01*
X31671351Y-29228646D01*
X31444927Y-29028052D01*
X31444921Y-29028047D01*
X31195973Y-28856212D01*
X31195964Y-28856206D01*
X30928117Y-28715628D01*
X30645272Y-28608358D01*
X30501731Y-28572979D01*
X30351551Y-28535963D01*
X30117517Y-28507546D01*
X30051254Y-28499500D01*
X30051252Y-28499500D01*
X29965892Y-28499500D01*
X26215892Y-28499500D01*
X26150000Y-28499500D01*
X25998748Y-28499500D01*
X25998746Y-28499500D01*
X25851897Y-28517331D01*
X25698449Y-28535963D01*
X25579602Y-28565255D01*
X25404727Y-28608358D01*
X25121882Y-28715628D01*
X24854035Y-28856206D01*
X24854026Y-28856212D01*
X24605078Y-29028047D01*
X24605072Y-29028052D01*
X24378648Y-29228646D01*
X24378646Y-29228648D01*
X24178052Y-29455072D01*
X24178047Y-29455078D01*
X24006212Y-29704026D01*
X24006206Y-29704035D01*
X23865628Y-29971882D01*
X23758358Y-30254727D01*
X23734999Y-30349500D01*
X23685963Y-30548449D01*
X23649500Y-30848748D01*
X20498597Y-30848748D01*
X20498597Y-23251577D01*
X20498792Y-23244624D01*
X20501188Y-23201957D01*
X20504934Y-23135258D01*
X21499500Y-23135258D01*
X21499500Y-23364741D01*
X21520070Y-23520974D01*
X21529452Y-23592238D01*
X21552472Y-23678149D01*
X21588842Y-23813887D01*
X21676650Y-24025876D01*
X21676657Y-24025890D01*
X21791392Y-24224617D01*
X21931081Y-24406661D01*
X21931089Y-24406670D01*
X22093330Y-24568911D01*
X22093338Y-24568918D01*
X22275382Y-24708607D01*
X22275385Y-24708608D01*
X22275388Y-24708611D01*
X22474112Y-24823344D01*
X22474117Y-24823346D01*
X22474123Y-24823349D01*
X22565480Y-24861190D01*
X22686113Y-24911158D01*
X22907762Y-24970548D01*
X23135266Y-25000500D01*
X23135273Y-25000500D01*
X23364727Y-25000500D01*
X23364734Y-25000500D01*
X23592238Y-24970548D01*
X23813887Y-24911158D01*
X24025888Y-24823344D01*
X24224612Y-24708611D01*
X24366160Y-24599997D01*
X27645034Y-24599997D01*
X27645034Y-24600002D01*
X27664858Y-24826599D01*
X27664860Y-24826610D01*
X27723730Y-25046317D01*
X27723735Y-25046331D01*
X27819863Y-25252478D01*
X27870974Y-25325472D01*
X28550000Y-24646446D01*
X28550000Y-24652661D01*
X28577259Y-24754394D01*
X28629920Y-24845606D01*
X28704394Y-24920080D01*
X28795606Y-24972741D01*
X28897339Y-25000000D01*
X28903553Y-25000000D01*
X28224526Y-25679025D01*
X28297513Y-25730132D01*
X28297521Y-25730136D01*
X28503668Y-25826264D01*
X28503682Y-25826269D01*
X28723389Y-25885139D01*
X28723400Y-25885141D01*
X28949998Y-25904966D01*
X28950002Y-25904966D01*
X29176599Y-25885141D01*
X29176610Y-25885139D01*
X29396317Y-25826269D01*
X29396331Y-25826264D01*
X29602478Y-25730136D01*
X29675471Y-25679024D01*
X28996447Y-25000000D01*
X29002661Y-25000000D01*
X29104394Y-24972741D01*
X29195606Y-24920080D01*
X29270080Y-24845606D01*
X29322741Y-24754394D01*
X29350000Y-24652661D01*
X29350000Y-24646447D01*
X30029024Y-25325471D01*
X30080136Y-25252478D01*
X30176264Y-25046331D01*
X30176269Y-25046317D01*
X30235139Y-24826610D01*
X30235141Y-24826599D01*
X30254966Y-24600002D01*
X30254966Y-24599997D01*
X30235141Y-24373400D01*
X30235139Y-24373389D01*
X30176269Y-24153682D01*
X30176264Y-24153668D01*
X30080136Y-23947521D01*
X30080132Y-23947513D01*
X30029025Y-23874526D01*
X29350000Y-24553551D01*
X29350000Y-24547339D01*
X29322741Y-24445606D01*
X29270080Y-24354394D01*
X29195606Y-24279920D01*
X29104394Y-24227259D01*
X29002661Y-24200000D01*
X28996445Y-24200000D01*
X29675472Y-23520974D01*
X29602478Y-23469863D01*
X29396331Y-23373735D01*
X29396317Y-23373730D01*
X29176610Y-23314860D01*
X29176599Y-23314858D01*
X28950002Y-23295034D01*
X28949998Y-23295034D01*
X28723400Y-23314858D01*
X28723389Y-23314860D01*
X28503682Y-23373730D01*
X28503673Y-23373734D01*
X28297516Y-23469866D01*
X28297512Y-23469868D01*
X28224526Y-23520973D01*
X28224526Y-23520974D01*
X28903553Y-24200000D01*
X28897339Y-24200000D01*
X28795606Y-24227259D01*
X28704394Y-24279920D01*
X28629920Y-24354394D01*
X28577259Y-24445606D01*
X28550000Y-24547339D01*
X28550000Y-24553552D01*
X27870974Y-23874526D01*
X27870973Y-23874526D01*
X27819868Y-23947512D01*
X27819866Y-23947516D01*
X27723734Y-24153673D01*
X27723730Y-24153682D01*
X27664860Y-24373389D01*
X27664858Y-24373400D01*
X27645034Y-24599997D01*
X24366160Y-24599997D01*
X24406661Y-24568919D01*
X24406665Y-24568914D01*
X24406670Y-24568911D01*
X24568911Y-24406670D01*
X24568914Y-24406665D01*
X24568919Y-24406661D01*
X24708611Y-24224612D01*
X24823344Y-24025888D01*
X24911158Y-23813887D01*
X24970548Y-23592238D01*
X25000500Y-23364734D01*
X25000500Y-23135266D01*
X24970548Y-22907762D01*
X24911158Y-22686113D01*
X24823344Y-22474112D01*
X24708611Y-22275388D01*
X24708608Y-22275385D01*
X24708607Y-22275382D01*
X24568918Y-22093338D01*
X24568911Y-22093330D01*
X24406670Y-21931089D01*
X24406661Y-21931081D01*
X24224617Y-21791392D01*
X24204187Y-21779597D01*
X24025888Y-21676656D01*
X24025876Y-21676650D01*
X23813887Y-21588842D01*
X23592238Y-21529452D01*
X23554215Y-21524446D01*
X23364741Y-21499500D01*
X23364734Y-21499500D01*
X23135266Y-21499500D01*
X23135258Y-21499500D01*
X22918715Y-21528009D01*
X22907762Y-21529452D01*
X22870288Y-21539493D01*
X22686112Y-21588842D01*
X22474123Y-21676650D01*
X22474109Y-21676657D01*
X22275382Y-21791392D01*
X22093338Y-21931081D01*
X21931081Y-22093338D01*
X21791392Y-22275382D01*
X21676657Y-22474109D01*
X21676650Y-22474123D01*
X21588842Y-22686112D01*
X21529453Y-22907759D01*
X21529451Y-22907770D01*
X21499500Y-23135258D01*
X20504934Y-23135258D01*
X20515496Y-22947192D01*
X20517050Y-22933394D01*
X20566367Y-22643138D01*
X20569460Y-22629586D01*
X20573609Y-22615187D01*
X20650964Y-22346679D01*
X20655556Y-22333558D01*
X20768224Y-22061554D01*
X20774247Y-22049047D01*
X20916662Y-21791370D01*
X20924059Y-21779597D01*
X21094428Y-21539483D01*
X21103083Y-21528629D01*
X21299277Y-21309089D01*
X21309089Y-21299277D01*
X21528629Y-21103083D01*
X21539483Y-21094428D01*
X21779602Y-20924055D01*
X21791370Y-20916662D01*
X21811709Y-20905420D01*
X22049047Y-20774247D01*
X22061554Y-20768224D01*
X22333562Y-20655554D01*
X22346679Y-20650964D01*
X22629591Y-20569458D01*
X22643138Y-20566367D01*
X22933394Y-20517050D01*
X22947192Y-20515496D01*
X23244625Y-20498792D01*
X23251578Y-20498597D01*
X23255745Y-20498597D01*
X34978229Y-20498914D01*
G37*
%TD.AperFunction*%
%TA.AperFunction,Conductor*%
G36*
X44024861Y-35459828D02*
G01*
X44083532Y-35497769D01*
X44112376Y-35561407D01*
X44102237Y-35630537D01*
X44077270Y-35666387D01*
X41830477Y-37913181D01*
X41769154Y-37946666D01*
X41742796Y-37949500D01*
X39934772Y-37949500D01*
X39867733Y-37929815D01*
X39863649Y-37927075D01*
X39852734Y-37919432D01*
X39852732Y-37919431D01*
X39646497Y-37823261D01*
X39646488Y-37823258D01*
X39426697Y-37764366D01*
X39426693Y-37764365D01*
X39426692Y-37764365D01*
X39426691Y-37764364D01*
X39426686Y-37764364D01*
X39200002Y-37744532D01*
X39199998Y-37744532D01*
X38973313Y-37764364D01*
X38973302Y-37764366D01*
X38753511Y-37823258D01*
X38753502Y-37823261D01*
X38547267Y-37919431D01*
X38547265Y-37919432D01*
X38536351Y-37927075D01*
X38470144Y-37949402D01*
X38465228Y-37949500D01*
X38172205Y-37949500D01*
X38105166Y-37929815D01*
X38084524Y-37913181D01*
X36843523Y-36672181D01*
X36810038Y-36610858D01*
X36815022Y-36541166D01*
X36856894Y-36485233D01*
X36922358Y-36460816D01*
X36931204Y-36460500D01*
X37446610Y-36460500D01*
X37446611Y-36460500D01*
X37617701Y-36433402D01*
X37782445Y-36379873D01*
X37936788Y-36301232D01*
X38076928Y-36199414D01*
X38469523Y-35806819D01*
X38530846Y-35773334D01*
X38557204Y-35770500D01*
X43086610Y-35770500D01*
X43086611Y-35770500D01*
X43257701Y-35743402D01*
X43422445Y-35689873D01*
X43576788Y-35611232D01*
X43716928Y-35509414D01*
X43719523Y-35506819D01*
X43780846Y-35473334D01*
X43807204Y-35470500D01*
X43890686Y-35470500D01*
X43890694Y-35470500D01*
X43927569Y-35467598D01*
X43954994Y-35459630D01*
X44024861Y-35459828D01*
G37*
%TD.AperFunction*%
%TA.AperFunction,Conductor*%
G36*
X45668833Y-33207179D02*
G01*
X45724767Y-33249051D01*
X45749184Y-33314515D01*
X45749500Y-33323361D01*
X45749500Y-33942796D01*
X45729815Y-34009835D01*
X45713181Y-34030477D01*
X44671387Y-35072270D01*
X44610064Y-35105755D01*
X44540372Y-35100771D01*
X44484439Y-35058899D01*
X44460022Y-34993435D01*
X44464629Y-34949996D01*
X44472598Y-34922569D01*
X44475500Y-34885694D01*
X44475500Y-34454306D01*
X44472598Y-34417431D01*
X44452479Y-34348181D01*
X44452678Y-34278312D01*
X44490620Y-34219642D01*
X44524104Y-34199024D01*
X44526547Y-34198013D01*
X44526551Y-34198010D01*
X44526552Y-34198010D01*
X44614955Y-34138939D01*
X44614955Y-34138938D01*
X44614959Y-34138936D01*
X44674036Y-34099464D01*
X45537819Y-33235679D01*
X45599142Y-33202195D01*
X45668833Y-33207179D01*
G37*
%TD.AperFunction*%
%TA.AperFunction,Conductor*%
G36*
X41943039Y-29079685D02*
G01*
X41988794Y-29132489D01*
X42000000Y-29184000D01*
X42000000Y-29436000D01*
X41980315Y-29503039D01*
X41927511Y-29548794D01*
X41876000Y-29560000D01*
X40850000Y-29560000D01*
X40850000Y-30284999D01*
X40856581Y-30284999D01*
X40927102Y-30278591D01*
X40927107Y-30278590D01*
X41089398Y-30228018D01*
X41220351Y-30148853D01*
X41287906Y-30131016D01*
X41349600Y-30149431D01*
X41466511Y-30221544D01*
X41466518Y-30221547D01*
X41522974Y-30240255D01*
X41580419Y-30280028D01*
X41607242Y-30344544D01*
X41594927Y-30413319D01*
X41590704Y-30421079D01*
X41573718Y-30449801D01*
X41527899Y-30607513D01*
X41527704Y-30609998D01*
X41527705Y-30610000D01*
X42876000Y-30610000D01*
X42943039Y-30629685D01*
X42988794Y-30682489D01*
X43000000Y-30734000D01*
X43000000Y-30986000D01*
X42980315Y-31053039D01*
X42927511Y-31098794D01*
X42876000Y-31110000D01*
X41527705Y-31110000D01*
X41527704Y-31110001D01*
X41527899Y-31112486D01*
X41573718Y-31270198D01*
X41657314Y-31411552D01*
X41662100Y-31417722D01*
X41659640Y-31419629D01*
X41686210Y-31468288D01*
X41681226Y-31537980D01*
X41660162Y-31570781D01*
X41661699Y-31571974D01*
X41656915Y-31578140D01*
X41573255Y-31719603D01*
X41573254Y-31719606D01*
X41527402Y-31877426D01*
X41527401Y-31877432D01*
X41524500Y-31914298D01*
X41524500Y-32345701D01*
X41527401Y-32382567D01*
X41527402Y-32382573D01*
X41573254Y-32540393D01*
X41573255Y-32540396D01*
X41656917Y-32681862D01*
X41661702Y-32688031D01*
X41659256Y-32689927D01*
X41685857Y-32738642D01*
X41680873Y-32808334D01*
X41660069Y-32840703D01*
X41661702Y-32841969D01*
X41656917Y-32848137D01*
X41573255Y-32989603D01*
X41573254Y-32989606D01*
X41527402Y-33147426D01*
X41527401Y-33147432D01*
X41524500Y-33184298D01*
X41524500Y-33445500D01*
X41504815Y-33512539D01*
X41452011Y-33558294D01*
X41400500Y-33569500D01*
X39649500Y-33569500D01*
X39582461Y-33549815D01*
X39536706Y-33497011D01*
X39525500Y-33445500D01*
X39525500Y-33184313D01*
X39525499Y-33184298D01*
X39524948Y-33177302D01*
X39522598Y-33147431D01*
X39495990Y-33055848D01*
X39486737Y-33023999D01*
X39476744Y-32989602D01*
X39393081Y-32848135D01*
X39393078Y-32848132D01*
X39388298Y-32841969D01*
X39390750Y-32840066D01*
X39364155Y-32791421D01*
X39369104Y-32721726D01*
X39389940Y-32689304D01*
X39388298Y-32688031D01*
X39393075Y-32681870D01*
X39393081Y-32681865D01*
X39476744Y-32540398D01*
X39522598Y-32382569D01*
X39525500Y-32345694D01*
X39525500Y-31914306D01*
X39522598Y-31877431D01*
X39476744Y-31719602D01*
X39393081Y-31578135D01*
X39393078Y-31578132D01*
X39388298Y-31571969D01*
X39390750Y-31570066D01*
X39364155Y-31521421D01*
X39369104Y-31451726D01*
X39389940Y-31419304D01*
X39388298Y-31418031D01*
X39393075Y-31411870D01*
X39393081Y-31411865D01*
X39476744Y-31270398D01*
X39522598Y-31112569D01*
X39525500Y-31075694D01*
X39525500Y-30709361D01*
X39545185Y-30642322D01*
X39561819Y-30621680D01*
X39576068Y-30607431D01*
X39599464Y-30584035D01*
X39612817Y-30564049D01*
X39628233Y-30545265D01*
X39649464Y-30524035D01*
X39650379Y-30522666D01*
X39694377Y-30456819D01*
X39694377Y-30456818D01*
X39707174Y-30437666D01*
X39748013Y-30376547D01*
X39776350Y-30308135D01*
X39814607Y-30215774D01*
X39858444Y-30161377D01*
X39924738Y-30139311D01*
X39992437Y-30156590D01*
X39993315Y-30157115D01*
X40110604Y-30228019D01*
X40110603Y-30228019D01*
X40272894Y-30278590D01*
X40272893Y-30278590D01*
X40343408Y-30284998D01*
X40343426Y-30284999D01*
X40349999Y-30284998D01*
X40350000Y-30284998D01*
X40350000Y-29434000D01*
X40369685Y-29366961D01*
X40422489Y-29321206D01*
X40474000Y-29310000D01*
X40600000Y-29310000D01*
X40600000Y-29184000D01*
X40619685Y-29116961D01*
X40672489Y-29071206D01*
X40724000Y-29060000D01*
X41876000Y-29060000D01*
X41943039Y-29079685D01*
G37*
%TD.AperFunction*%
%TA.AperFunction,Conductor*%
G36*
X82143333Y-29949837D02*
G01*
X82187681Y-29978338D01*
X82188181Y-29978838D01*
X82221666Y-30040161D01*
X82224500Y-30066519D01*
X82224500Y-30851637D01*
X82204815Y-30918676D01*
X82152011Y-30964431D01*
X82082853Y-30974375D01*
X82019297Y-30945350D01*
X82012819Y-30939318D01*
X81624038Y-30550537D01*
X81551378Y-30501988D01*
X81551377Y-30501987D01*
X81476375Y-30451872D01*
X81431570Y-30398260D01*
X81422863Y-30328935D01*
X81453018Y-30265907D01*
X81512461Y-30229188D01*
X81534040Y-30225279D01*
X81602196Y-30219086D01*
X81764606Y-30168478D01*
X81910185Y-30080472D01*
X82012320Y-29978336D01*
X82073641Y-29944853D01*
X82143333Y-29949837D01*
G37*
%TD.AperFunction*%
%TA.AperFunction,Conductor*%
G36*
X83329818Y-24970185D02*
G01*
X83363097Y-25001615D01*
X83419892Y-25079788D01*
X83570213Y-25230109D01*
X83742179Y-25355048D01*
X83742181Y-25355049D01*
X83742184Y-25355051D01*
X83931588Y-25451557D01*
X83998293Y-25473231D01*
X84055968Y-25512667D01*
X84083167Y-25577025D01*
X84071253Y-25645872D01*
X84047656Y-25678842D01*
X82488319Y-27238181D01*
X82426996Y-27271666D01*
X82400638Y-27274500D01*
X82261304Y-27274500D01*
X82087341Y-27309103D01*
X82087333Y-27309105D01*
X81987312Y-27350536D01*
X81987311Y-27350536D01*
X81923459Y-27376983D01*
X81923452Y-27376987D01*
X81878295Y-27407160D01*
X81833138Y-27437334D01*
X81775964Y-27475535D01*
X81775961Y-27475538D01*
X81002509Y-28248989D01*
X80951718Y-28279693D01*
X80785396Y-28331520D01*
X80785392Y-28331522D01*
X80785233Y-28331619D01*
X80785089Y-28331659D01*
X80778555Y-28334600D01*
X80778107Y-28333605D01*
X80721087Y-28349500D01*
X80428913Y-28349500D01*
X80371892Y-28333605D01*
X80371445Y-28334600D01*
X80364910Y-28331659D01*
X80364767Y-28331619D01*
X80364609Y-28331523D01*
X80364606Y-28331522D01*
X80202196Y-28280914D01*
X80202194Y-28280913D01*
X80202192Y-28280913D01*
X80152778Y-28276423D01*
X80131616Y-28274500D01*
X79618384Y-28274500D01*
X79599145Y-28276248D01*
X79547807Y-28280913D01*
X79385393Y-28331522D01*
X79239811Y-28419530D01*
X79239810Y-28419531D01*
X79137681Y-28521661D01*
X79076358Y-28555146D01*
X79006666Y-28550162D01*
X78962319Y-28521661D01*
X78860188Y-28419530D01*
X78843596Y-28409500D01*
X78714606Y-28331522D01*
X78552196Y-28280914D01*
X78552194Y-28280913D01*
X78552192Y-28280913D01*
X78502778Y-28276423D01*
X78481616Y-28274500D01*
X77968384Y-28274500D01*
X77949145Y-28276248D01*
X77897807Y-28280913D01*
X77735393Y-28331522D01*
X77589811Y-28419530D01*
X77589811Y-28419531D01*
X77546163Y-28463180D01*
X77484840Y-28496666D01*
X77458481Y-28499500D01*
X76605217Y-28499500D01*
X76605217Y-28498245D01*
X76543007Y-28486446D01*
X76492297Y-28438381D01*
X76475500Y-28376063D01*
X76475500Y-27961308D01*
X76472362Y-27945534D01*
X76466672Y-27916928D01*
X76440895Y-27787334D01*
X76375339Y-27629071D01*
X76373695Y-27624474D01*
X76274465Y-27475966D01*
X76225287Y-27426788D01*
X76151009Y-27352510D01*
X76120306Y-27301721D01*
X76119086Y-27297806D01*
X76119086Y-27297804D01*
X76068478Y-27135394D01*
X75980472Y-26989815D01*
X75980470Y-26989813D01*
X75980469Y-26989811D01*
X75860188Y-26869530D01*
X75714606Y-26781522D01*
X75656414Y-26763389D01*
X75552196Y-26730914D01*
X75552194Y-26730913D01*
X75552192Y-26730913D01*
X75502778Y-26726423D01*
X75481616Y-26724500D01*
X74968384Y-26724500D01*
X74949145Y-26726248D01*
X74897807Y-26730913D01*
X74897804Y-26730914D01*
X74735394Y-26781522D01*
X74735392Y-26781522D01*
X74735389Y-26781524D01*
X74728555Y-26784600D01*
X74727282Y-26781772D01*
X74673353Y-26795974D01*
X74606893Y-26774413D01*
X74562640Y-26720344D01*
X74554645Y-26650933D01*
X74585444Y-26588218D01*
X74589136Y-26584363D01*
X75594830Y-25578668D01*
X75656151Y-25545185D01*
X75701906Y-25543878D01*
X75743713Y-25550500D01*
X75743714Y-25550500D01*
X75956286Y-25550500D01*
X75956287Y-25550500D01*
X76166243Y-25517246D01*
X76368412Y-25451557D01*
X76557816Y-25355051D01*
X76729792Y-25230104D01*
X76868604Y-25091291D01*
X76929923Y-25057809D01*
X76999615Y-25062793D01*
X77055549Y-25104664D01*
X77061821Y-25113878D01*
X77065185Y-25119333D01*
X77065186Y-25119334D01*
X77157288Y-25268656D01*
X77281344Y-25392712D01*
X77430666Y-25484814D01*
X77597203Y-25539999D01*
X77699991Y-25550500D01*
X79000008Y-25550499D01*
X79102797Y-25539999D01*
X79269334Y-25484814D01*
X79418656Y-25392712D01*
X79542712Y-25268656D01*
X79634814Y-25119334D01*
X79662595Y-25035495D01*
X79702368Y-24978051D01*
X79766884Y-24951228D01*
X79780301Y-24950500D01*
X83262779Y-24950500D01*
X83329818Y-24970185D01*
G37*
%TD.AperFunction*%
%TA.AperFunction,Conductor*%
G36*
X39390020Y-21945185D02*
G01*
X39435775Y-21997989D01*
X39445719Y-22067147D01*
X39416694Y-22130703D01*
X39366314Y-22165682D01*
X39257671Y-22206202D01*
X39257664Y-22206206D01*
X39142455Y-22292452D01*
X39142452Y-22292455D01*
X39056206Y-22407664D01*
X39056202Y-22407671D01*
X39005908Y-22542517D01*
X38999501Y-22602116D01*
X38999501Y-22602123D01*
X38999500Y-22602135D01*
X38999500Y-28197870D01*
X38999679Y-28201196D01*
X38998707Y-28201247D01*
X38987034Y-28265992D01*
X38939429Y-28317135D01*
X38876144Y-28334500D01*
X38693384Y-28334500D01*
X38674145Y-28336248D01*
X38622807Y-28340913D01*
X38460390Y-28391523D01*
X38460233Y-28391619D01*
X38460089Y-28391659D01*
X38453555Y-28394600D01*
X38453107Y-28393605D01*
X38396087Y-28409500D01*
X38153913Y-28409500D01*
X38096892Y-28393605D01*
X38096445Y-28394600D01*
X38089910Y-28391659D01*
X38089767Y-28391619D01*
X38089609Y-28391523D01*
X38039995Y-28376063D01*
X37927196Y-28340914D01*
X37927194Y-28340913D01*
X37927192Y-28340913D01*
X37877778Y-28336423D01*
X37856616Y-28334500D01*
X37856613Y-28334500D01*
X37832122Y-28334500D01*
X37765083Y-28314815D01*
X37719328Y-28262011D01*
X37708122Y-28210500D01*
X37708122Y-25721011D01*
X37702026Y-25682523D01*
X37700499Y-25663125D01*
X37700499Y-22602129D01*
X37700498Y-22602123D01*
X37700497Y-22602116D01*
X37694091Y-22542517D01*
X37686188Y-22521329D01*
X37643797Y-22407671D01*
X37643793Y-22407664D01*
X37557547Y-22292455D01*
X37557544Y-22292452D01*
X37442335Y-22206206D01*
X37442328Y-22206202D01*
X37333686Y-22165682D01*
X37277752Y-22123811D01*
X37253335Y-22058347D01*
X37268186Y-21990074D01*
X37317591Y-21940668D01*
X37377019Y-21925500D01*
X39322981Y-21925500D01*
X39390020Y-21945185D01*
G37*
%TD.AperFunction*%
%TA.AperFunction,Conductor*%
G36*
X34618834Y-23807179D02*
G01*
X34674767Y-23849051D01*
X34699184Y-23914515D01*
X34699500Y-23923361D01*
X34699500Y-27092795D01*
X34679815Y-27159834D01*
X34663184Y-27180472D01*
X34618379Y-27225277D01*
X34587680Y-27255977D01*
X34526356Y-27289461D01*
X34456665Y-27284476D01*
X34412318Y-27255976D01*
X33586819Y-26430477D01*
X33553334Y-26369154D01*
X33550500Y-26342796D01*
X33550500Y-25334772D01*
X33570185Y-25267733D01*
X33572927Y-25263646D01*
X33580568Y-25252734D01*
X33676739Y-25046496D01*
X33735635Y-24826692D01*
X33754599Y-24609924D01*
X33780051Y-24544857D01*
X33790438Y-24533060D01*
X34487819Y-23835680D01*
X34549142Y-23802195D01*
X34618834Y-23807179D01*
G37*
%TD.AperFunction*%
%TA.AperFunction,Conductor*%
G36*
X42118039Y-21945185D02*
G01*
X42163794Y-21997989D01*
X42175000Y-22049500D01*
X42175000Y-22345259D01*
X42155315Y-22412298D01*
X42102511Y-22458053D01*
X42033353Y-22467997D01*
X41969797Y-22438972D01*
X41949847Y-22414218D01*
X41949112Y-22414769D01*
X41857547Y-22292455D01*
X41857544Y-22292452D01*
X41742335Y-22206206D01*
X41742328Y-22206202D01*
X41633686Y-22165682D01*
X41577752Y-22123811D01*
X41553335Y-22058347D01*
X41568186Y-21990074D01*
X41617591Y-21940668D01*
X41677019Y-21925500D01*
X42051000Y-21925500D01*
X42118039Y-21945185D01*
G37*
%TD.AperFunction*%
%TD*%
M02*
