%TF.GenerationSoftware,KiCad,Pcbnew,8.0.8*%
%TF.CreationDate,2026-01-07T21:13:00+09:00*%
%TF.ProjectId,emergency_board_NHK2026,656d6572-6765-46e6-9379-5f626f617264,rev?*%
%TF.SameCoordinates,Original*%
%TF.FileFunction,Paste,Top*%
%TF.FilePolarity,Positive*%
%FSLAX46Y46*%
G04 Gerber Fmt 4.6, Leading zero omitted, Abs format (unit mm)*
G04 Created by KiCad (PCBNEW 8.0.8) date 2026-01-07 21:13:00*
%MOMM*%
%LPD*%
G01*
G04 APERTURE LIST*
G04 Aperture macros list*
%AMRoundRect*
0 Rectangle with rounded corners*
0 $1 Rounding radius*
0 $2 $3 $4 $5 $6 $7 $8 $9 X,Y pos of 4 corners*
0 Add a 4 corners polygon primitive as box body*
4,1,4,$2,$3,$4,$5,$6,$7,$8,$9,$2,$3,0*
0 Add four circle primitives for the rounded corners*
1,1,$1+$1,$2,$3*
1,1,$1+$1,$4,$5*
1,1,$1+$1,$6,$7*
1,1,$1+$1,$8,$9*
0 Add four rect primitives between the rounded corners*
20,1,$1+$1,$2,$3,$4,$5,0*
20,1,$1+$1,$4,$5,$6,$7,0*
20,1,$1+$1,$6,$7,$8,$9,0*
20,1,$1+$1,$8,$9,$2,$3,0*%
G04 Aperture macros list end*
%ADD10R,2.000000X5.500000*%
%ADD11RoundRect,0.225000X0.225000X0.250000X-0.225000X0.250000X-0.225000X-0.250000X0.225000X-0.250000X0*%
%ADD12RoundRect,0.225000X0.250000X-0.225000X0.250000X0.225000X-0.250000X0.225000X-0.250000X-0.225000X0*%
%ADD13RoundRect,0.225000X-0.250000X0.225000X-0.250000X-0.225000X0.250000X-0.225000X0.250000X0.225000X0*%
%ADD14R,1.550000X2.350000*%
%ADD15RoundRect,0.243750X-0.243750X-0.456250X0.243750X-0.456250X0.243750X0.456250X-0.243750X0.456250X0*%
%ADD16R,1.050000X0.700000*%
%ADD17RoundRect,0.200000X-0.200000X-0.275000X0.200000X-0.275000X0.200000X0.275000X-0.200000X0.275000X0*%
%ADD18RoundRect,0.200000X0.200000X0.275000X-0.200000X0.275000X-0.200000X-0.275000X0.200000X-0.275000X0*%
%ADD19RoundRect,0.150000X0.825000X0.150000X-0.825000X0.150000X-0.825000X-0.150000X0.825000X-0.150000X0*%
G04 APERTURE END LIST*
D10*
%TO.C,L1*%
X40500000Y-25400000D03*
X36200000Y-25400000D03*
%TD*%
D11*
%TO.C,C1*%
X43550000Y-29310000D03*
X42000000Y-29310000D03*
%TD*%
D12*
%TO.C,C4*%
X36000000Y-32360000D03*
X36000000Y-30810000D03*
%TD*%
D13*
%TO.C,C5*%
X34500000Y-29260000D03*
X34500000Y-30810000D03*
%TD*%
D14*
%TO.C,D1*%
X43450000Y-27100000D03*
X43450000Y-22800000D03*
%TD*%
D15*
%TO.C,D2*%
X80162500Y-35200000D03*
X82037500Y-35200000D03*
%TD*%
%TO.C,D3*%
X80162500Y-32550000D03*
X82037500Y-32550000D03*
%TD*%
D16*
%TO.C,Q1*%
X76700000Y-31300000D03*
X76700000Y-29400000D03*
X74400000Y-30350000D03*
%TD*%
D17*
%TO.C,R1*%
X34450000Y-33860000D03*
X36100000Y-33860000D03*
%TD*%
%TO.C,R2*%
X34450000Y-35360000D03*
X36100000Y-35360000D03*
%TD*%
D18*
%TO.C,R3*%
X40600000Y-29310000D03*
X38950000Y-29310000D03*
%TD*%
%TO.C,R4*%
X37600000Y-29310000D03*
X35950000Y-29310000D03*
%TD*%
%TO.C,R5*%
X81275000Y-29250000D03*
X82925000Y-29250000D03*
%TD*%
%TO.C,R6*%
X75225000Y-27700000D03*
X73575000Y-27700000D03*
%TD*%
%TO.C,R7*%
X78225000Y-29250000D03*
X79875000Y-29250000D03*
%TD*%
D19*
%TO.C,U1*%
X43000000Y-34670000D03*
X43000000Y-33400000D03*
X43000000Y-32130000D03*
X43000000Y-30860000D03*
X38050000Y-30860000D03*
X38050000Y-32130000D03*
X38050000Y-33400000D03*
X38050000Y-34670000D03*
%TD*%
M02*
