M48
; DRILL file {KiCad 8.0.8} date 2026-01-07T21:13:12+0900
; FORMAT={-:-/ absolute / metric / decimal}
; #@! TF.CreationDate,2026-01-07T21:13:12+09:00
; #@! TF.GenerationSoftware,Kicad,Pcbnew,8.0.8
; #@! TF.FileFunction,Plated,1,2,PTH
FMAT,2
METRIC
; #@! TA.AperFunction,Plated,PTH,ViaDrill
T1C0.300
; #@! TA.AperFunction,Plated,PTH,ComponentDrill
T2C0.800
; #@! TA.AperFunction,Plated,PTH,ComponentDrill
T3C1.000
; #@! TA.AperFunction,Plated,PTH,ComponentDrill
T4C1.500
%
G90
G05
T1
X21.15Y-26.75
X21.2Y-40.05
X21.5Y-44.65
X21.7Y-21.7
X22.1Y-36.0
X22.25Y-31.2
X26.0Y-43.3
X26.25Y-26.95
X26.7Y-21.3
X29.6Y-43.4
X32.3Y-28.95
X32.9Y-36.3
X33.65Y-43.4
X33.8Y-32.0
X34.35Y-24.35
X34.35Y-26.6
X34.45Y-20.8
X37.6Y-36.7
X38.3Y-28.15
X38.35Y-22.2
X40.5Y-33.25
X40.55Y-31.7
X41.9Y-22.1
X43.05Y-24.75
X43.5Y-35.9
X45.15Y-34.15
X45.2Y-22.25
X45.6Y-27.55
X45.7Y-39.35
X46.65Y-45.55
X50.55Y-33.3
X50.65Y-26.5
X55.2Y-35.6
X56.5Y-45.5
X56.6Y-22.5
X56.7Y-27.45
X58.55Y-32.5
X65.8Y-30.55
X65.85Y-36.05
X67.0Y-26.15
X67.05Y-41.0
X67.65Y-45.5
X67.75Y-23.75
X73.1Y-32.8
X74.05Y-24.1
X74.25Y-20.8
X74.4Y-28.75
X75.0Y-26.5
X75.3Y-31.45
X77.35Y-33.8
X77.35Y-39.25
X79.5Y-36.65
X79.85Y-30.3
X81.15Y-39.7
X81.2Y-33.9
X81.85Y-21.8
X81.95Y-30.4
X83.25Y-35.7
X83.65Y-25.6
X84.1Y-28.85
X85.2Y-43.35
X89.75Y-28.15
X90.0Y-23.85
X94.15Y-27.25
X94.25Y-33.6
X94.25Y-38.45
X94.75Y-21.6
X94.9Y-44.85
T2
X28.95Y-24.6
X32.45Y-24.6
X39.2Y-39.05
X39.2Y-42.55
T3
X75.85Y-24.05
X75.9Y-42.35
X78.35Y-24.05
X78.4Y-42.35
X84.45Y-24.05
X86.95Y-24.05
T3
X53.15Y-25.0G85X59.65Y-25.0
G05
X53.15Y-41.6G85X59.65Y-41.6
G05
T4
X48.0Y-28.55G85X48.0Y-38.05
G05
X61.05Y-33.3G85X70.55Y-33.3
G05
M30
