%TF.GenerationSoftware,KiCad,Pcbnew,8.0.8*%
%TF.CreationDate,2026-01-07T21:13:13+09:00*%
%TF.ProjectId,emergency_board_NHK2026,656d6572-6765-46e6-9379-5f626f617264,rev?*%
%TF.SameCoordinates,Original*%
%TF.FileFunction,Drillmap*%
%TF.FilePolarity,Positive*%
%FSLAX45Y45*%
G04 Gerber Fmt 4.5, Leading zero omitted, Abs format (unit mm)*
G04 Created by KiCad (PCBNEW 8.0.8) date 2026-01-07 21:13:13*
%MOMM*%
%LPD*%
G01*
G04 APERTURE LIST*
%ADD10C,0.050000*%
%ADD11C,0.200000*%
%ADD12C,0.300000*%
G04 APERTURE END LIST*
D10*
X9325190Y-1999810D02*
G75*
G02*
X9650190Y-2324810I0J-325000D01*
G01*
X1999810Y-2324810D02*
G75*
G02*
X2324810Y-1999810I325000J0D01*
G01*
X2324810Y-4650190D02*
G75*
G02*
X1999810Y-4325190I0J325000D01*
G01*
X9650190Y-4325190D02*
G75*
G02*
X9325190Y-4650190I-325000J0D01*
G01*
X9325000Y-2000000D02*
X2324810Y-1999810D01*
X9650190Y-4325190D02*
X9650000Y-2325000D01*
X2324810Y-4650190D02*
X9325190Y-4650190D01*
X1999810Y-2324810D02*
X1999810Y-4325190D01*
X8605000Y-2900000D02*
X8980000Y-2900000D01*
X8605000Y-4000000D02*
X8980000Y-4000000D01*
X9180000Y-3800000D02*
X9180000Y-3100000D01*
X9180000Y-3800000D02*
G75*
G02*
X8980000Y-4000000I-200000J0D01*
G01*
X8405000Y-3100000D02*
G75*
G02*
X8605000Y-2900000I200000J0D01*
G01*
X8605000Y-4000000D02*
G75*
G02*
X8405000Y-3800000I0J200000D01*
G01*
X8980000Y-2900000D02*
G75*
G02*
X9180000Y-3100000I0J-200000D01*
G01*
X8405000Y-3100000D02*
X8405000Y-3800000D01*
X2990000Y-2900000D02*
G75*
G02*
X3190000Y-3100000I0J-200000D01*
G01*
X3190000Y-3800000D02*
G75*
G02*
X2990000Y-4000000I-200000J0D01*
G01*
X2615000Y-4000000D02*
G75*
G02*
X2415000Y-3800000I0J200000D01*
G01*
X2415000Y-3100000D02*
G75*
G02*
X2615000Y-2900000I200000J0D01*
G01*
X2615000Y-4000000D02*
X2990000Y-4000000D01*
X2615000Y-2900000D02*
X2990000Y-2900000D01*
X2415000Y-3100000D02*
X2415000Y-3800000D01*
X3190000Y-3800000D02*
X3190000Y-3100000D01*
D11*
D12*
X2175000Y-2175000D02*
X2475000Y-2475000D01*
X2475000Y-2175000D02*
X2175000Y-2475000D01*
X2175000Y-4175000D02*
X2475000Y-4475000D01*
X2475000Y-4175000D02*
X2175000Y-4475000D01*
X9175000Y-2175000D02*
X9475000Y-2475000D01*
X9475000Y-2175000D02*
X9175000Y-2475000D01*
X9175000Y-4175000D02*
X9475000Y-4475000D01*
X9475000Y-4175000D02*
X9175000Y-4475000D01*
D11*
X2258087Y-4964174D02*
X2258087Y-4764174D01*
X2258087Y-4764174D02*
X2305706Y-4764174D01*
X2305706Y-4764174D02*
X2334277Y-4773698D01*
X2334277Y-4773698D02*
X2353325Y-4792746D01*
X2353325Y-4792746D02*
X2362848Y-4811793D01*
X2362848Y-4811793D02*
X2372372Y-4849888D01*
X2372372Y-4849888D02*
X2372372Y-4878460D01*
X2372372Y-4878460D02*
X2362848Y-4916555D01*
X2362848Y-4916555D02*
X2353325Y-4935603D01*
X2353325Y-4935603D02*
X2334277Y-4954650D01*
X2334277Y-4954650D02*
X2305706Y-4964174D01*
X2305706Y-4964174D02*
X2258087Y-4964174D01*
X2458087Y-4964174D02*
X2458087Y-4830841D01*
X2458087Y-4868936D02*
X2467610Y-4849888D01*
X2467610Y-4849888D02*
X2477134Y-4840365D01*
X2477134Y-4840365D02*
X2496182Y-4830841D01*
X2496182Y-4830841D02*
X2515229Y-4830841D01*
X2581896Y-4964174D02*
X2581896Y-4830841D01*
X2581896Y-4764174D02*
X2572372Y-4773698D01*
X2572372Y-4773698D02*
X2581896Y-4783222D01*
X2581896Y-4783222D02*
X2591420Y-4773698D01*
X2591420Y-4773698D02*
X2581896Y-4764174D01*
X2581896Y-4764174D02*
X2581896Y-4783222D01*
X2705706Y-4964174D02*
X2686658Y-4954650D01*
X2686658Y-4954650D02*
X2677134Y-4935603D01*
X2677134Y-4935603D02*
X2677134Y-4764174D01*
X2810467Y-4964174D02*
X2791420Y-4954650D01*
X2791420Y-4954650D02*
X2781896Y-4935603D01*
X2781896Y-4935603D02*
X2781896Y-4764174D01*
X3039039Y-4964174D02*
X3039039Y-4764174D01*
X3039039Y-4764174D02*
X3105706Y-4907031D01*
X3105706Y-4907031D02*
X3172372Y-4764174D01*
X3172372Y-4764174D02*
X3172372Y-4964174D01*
X3353325Y-4964174D02*
X3353325Y-4859412D01*
X3353325Y-4859412D02*
X3343801Y-4840365D01*
X3343801Y-4840365D02*
X3324753Y-4830841D01*
X3324753Y-4830841D02*
X3286658Y-4830841D01*
X3286658Y-4830841D02*
X3267610Y-4840365D01*
X3353325Y-4954650D02*
X3334277Y-4964174D01*
X3334277Y-4964174D02*
X3286658Y-4964174D01*
X3286658Y-4964174D02*
X3267610Y-4954650D01*
X3267610Y-4954650D02*
X3258086Y-4935603D01*
X3258086Y-4935603D02*
X3258086Y-4916555D01*
X3258086Y-4916555D02*
X3267610Y-4897507D01*
X3267610Y-4897507D02*
X3286658Y-4887984D01*
X3286658Y-4887984D02*
X3334277Y-4887984D01*
X3334277Y-4887984D02*
X3353325Y-4878460D01*
X3448563Y-4830841D02*
X3448563Y-5030841D01*
X3448563Y-4840365D02*
X3467610Y-4830841D01*
X3467610Y-4830841D02*
X3505706Y-4830841D01*
X3505706Y-4830841D02*
X3524753Y-4840365D01*
X3524753Y-4840365D02*
X3534277Y-4849888D01*
X3534277Y-4849888D02*
X3543801Y-4868936D01*
X3543801Y-4868936D02*
X3543801Y-4926079D01*
X3543801Y-4926079D02*
X3534277Y-4945126D01*
X3534277Y-4945126D02*
X3524753Y-4954650D01*
X3524753Y-4954650D02*
X3505706Y-4964174D01*
X3505706Y-4964174D02*
X3467610Y-4964174D01*
X3467610Y-4964174D02*
X3448563Y-4954650D01*
X3629515Y-4945126D02*
X3639039Y-4954650D01*
X3639039Y-4954650D02*
X3629515Y-4964174D01*
X3629515Y-4964174D02*
X3619991Y-4954650D01*
X3619991Y-4954650D02*
X3629515Y-4945126D01*
X3629515Y-4945126D02*
X3629515Y-4964174D01*
X3629515Y-4840365D02*
X3639039Y-4849888D01*
X3639039Y-4849888D02*
X3629515Y-4859412D01*
X3629515Y-4859412D02*
X3619991Y-4849888D01*
X3619991Y-4849888D02*
X3629515Y-4840365D01*
X3629515Y-4840365D02*
X3629515Y-4859412D01*
X1797310Y-5192690D02*
X1997310Y-5392690D01*
X1997310Y-5192690D02*
X1797310Y-5392690D01*
X2239039Y-5184174D02*
X2362848Y-5184174D01*
X2362848Y-5184174D02*
X2296182Y-5260365D01*
X2296182Y-5260365D02*
X2324753Y-5260365D01*
X2324753Y-5260365D02*
X2343801Y-5269888D01*
X2343801Y-5269888D02*
X2353325Y-5279412D01*
X2353325Y-5279412D02*
X2362848Y-5298460D01*
X2362848Y-5298460D02*
X2362848Y-5346079D01*
X2362848Y-5346079D02*
X2353325Y-5365126D01*
X2353325Y-5365126D02*
X2343801Y-5374650D01*
X2343801Y-5374650D02*
X2324753Y-5384174D01*
X2324753Y-5384174D02*
X2267610Y-5384174D01*
X2267610Y-5384174D02*
X2248563Y-5374650D01*
X2248563Y-5374650D02*
X2239039Y-5365126D01*
X2448563Y-5365126D02*
X2458087Y-5374650D01*
X2458087Y-5374650D02*
X2448563Y-5384174D01*
X2448563Y-5384174D02*
X2439039Y-5374650D01*
X2439039Y-5374650D02*
X2448563Y-5365126D01*
X2448563Y-5365126D02*
X2448563Y-5384174D01*
X2581896Y-5184174D02*
X2600944Y-5184174D01*
X2600944Y-5184174D02*
X2619991Y-5193698D01*
X2619991Y-5193698D02*
X2629515Y-5203222D01*
X2629515Y-5203222D02*
X2639039Y-5222269D01*
X2639039Y-5222269D02*
X2648563Y-5260365D01*
X2648563Y-5260365D02*
X2648563Y-5307984D01*
X2648563Y-5307984D02*
X2639039Y-5346079D01*
X2639039Y-5346079D02*
X2629515Y-5365126D01*
X2629515Y-5365126D02*
X2619991Y-5374650D01*
X2619991Y-5374650D02*
X2600944Y-5384174D01*
X2600944Y-5384174D02*
X2581896Y-5384174D01*
X2581896Y-5384174D02*
X2562848Y-5374650D01*
X2562848Y-5374650D02*
X2553325Y-5365126D01*
X2553325Y-5365126D02*
X2543801Y-5346079D01*
X2543801Y-5346079D02*
X2534277Y-5307984D01*
X2534277Y-5307984D02*
X2534277Y-5260365D01*
X2534277Y-5260365D02*
X2543801Y-5222269D01*
X2543801Y-5222269D02*
X2553325Y-5203222D01*
X2553325Y-5203222D02*
X2562848Y-5193698D01*
X2562848Y-5193698D02*
X2581896Y-5184174D01*
X2772372Y-5184174D02*
X2791420Y-5184174D01*
X2791420Y-5184174D02*
X2810467Y-5193698D01*
X2810467Y-5193698D02*
X2819991Y-5203222D01*
X2819991Y-5203222D02*
X2829515Y-5222269D01*
X2829515Y-5222269D02*
X2839039Y-5260365D01*
X2839039Y-5260365D02*
X2839039Y-5307984D01*
X2839039Y-5307984D02*
X2829515Y-5346079D01*
X2829515Y-5346079D02*
X2819991Y-5365126D01*
X2819991Y-5365126D02*
X2810467Y-5374650D01*
X2810467Y-5374650D02*
X2791420Y-5384174D01*
X2791420Y-5384174D02*
X2772372Y-5384174D01*
X2772372Y-5384174D02*
X2753325Y-5374650D01*
X2753325Y-5374650D02*
X2743801Y-5365126D01*
X2743801Y-5365126D02*
X2734277Y-5346079D01*
X2734277Y-5346079D02*
X2724753Y-5307984D01*
X2724753Y-5307984D02*
X2724753Y-5260365D01*
X2724753Y-5260365D02*
X2734277Y-5222269D01*
X2734277Y-5222269D02*
X2743801Y-5203222D01*
X2743801Y-5203222D02*
X2753325Y-5193698D01*
X2753325Y-5193698D02*
X2772372Y-5184174D01*
X2962848Y-5184174D02*
X2981896Y-5184174D01*
X2981896Y-5184174D02*
X3000944Y-5193698D01*
X3000944Y-5193698D02*
X3010467Y-5203222D01*
X3010467Y-5203222D02*
X3019991Y-5222269D01*
X3019991Y-5222269D02*
X3029515Y-5260365D01*
X3029515Y-5260365D02*
X3029515Y-5307984D01*
X3029515Y-5307984D02*
X3019991Y-5346079D01*
X3019991Y-5346079D02*
X3010467Y-5365126D01*
X3010467Y-5365126D02*
X3000944Y-5374650D01*
X3000944Y-5374650D02*
X2981896Y-5384174D01*
X2981896Y-5384174D02*
X2962848Y-5384174D01*
X2962848Y-5384174D02*
X2943801Y-5374650D01*
X2943801Y-5374650D02*
X2934277Y-5365126D01*
X2934277Y-5365126D02*
X2924753Y-5346079D01*
X2924753Y-5346079D02*
X2915229Y-5307984D01*
X2915229Y-5307984D02*
X2915229Y-5260365D01*
X2915229Y-5260365D02*
X2924753Y-5222269D01*
X2924753Y-5222269D02*
X2934277Y-5203222D01*
X2934277Y-5203222D02*
X2943801Y-5193698D01*
X2943801Y-5193698D02*
X2962848Y-5184174D01*
X3115229Y-5384174D02*
X3115229Y-5250841D01*
X3115229Y-5269888D02*
X3124753Y-5260365D01*
X3124753Y-5260365D02*
X3143801Y-5250841D01*
X3143801Y-5250841D02*
X3172372Y-5250841D01*
X3172372Y-5250841D02*
X3191420Y-5260365D01*
X3191420Y-5260365D02*
X3200944Y-5279412D01*
X3200944Y-5279412D02*
X3200944Y-5384174D01*
X3200944Y-5279412D02*
X3210467Y-5260365D01*
X3210467Y-5260365D02*
X3229515Y-5250841D01*
X3229515Y-5250841D02*
X3258086Y-5250841D01*
X3258086Y-5250841D02*
X3277134Y-5260365D01*
X3277134Y-5260365D02*
X3286658Y-5279412D01*
X3286658Y-5279412D02*
X3286658Y-5384174D01*
X3381896Y-5384174D02*
X3381896Y-5250841D01*
X3381896Y-5269888D02*
X3391420Y-5260365D01*
X3391420Y-5260365D02*
X3410467Y-5250841D01*
X3410467Y-5250841D02*
X3439039Y-5250841D01*
X3439039Y-5250841D02*
X3458087Y-5260365D01*
X3458087Y-5260365D02*
X3467610Y-5279412D01*
X3467610Y-5279412D02*
X3467610Y-5384174D01*
X3467610Y-5279412D02*
X3477134Y-5260365D01*
X3477134Y-5260365D02*
X3496182Y-5250841D01*
X3496182Y-5250841D02*
X3524753Y-5250841D01*
X3524753Y-5250841D02*
X3543801Y-5260365D01*
X3543801Y-5260365D02*
X3553325Y-5279412D01*
X3553325Y-5279412D02*
X3553325Y-5384174D01*
X3943801Y-5174650D02*
X3772372Y-5431793D01*
X4200944Y-5184174D02*
X4219992Y-5184174D01*
X4219992Y-5184174D02*
X4239039Y-5193698D01*
X4239039Y-5193698D02*
X4248563Y-5203222D01*
X4248563Y-5203222D02*
X4258087Y-5222269D01*
X4258087Y-5222269D02*
X4267611Y-5260365D01*
X4267611Y-5260365D02*
X4267611Y-5307984D01*
X4267611Y-5307984D02*
X4258087Y-5346079D01*
X4258087Y-5346079D02*
X4248563Y-5365126D01*
X4248563Y-5365126D02*
X4239039Y-5374650D01*
X4239039Y-5374650D02*
X4219992Y-5384174D01*
X4219992Y-5384174D02*
X4200944Y-5384174D01*
X4200944Y-5384174D02*
X4181896Y-5374650D01*
X4181896Y-5374650D02*
X4172372Y-5365126D01*
X4172372Y-5365126D02*
X4162849Y-5346079D01*
X4162849Y-5346079D02*
X4153325Y-5307984D01*
X4153325Y-5307984D02*
X4153325Y-5260365D01*
X4153325Y-5260365D02*
X4162849Y-5222269D01*
X4162849Y-5222269D02*
X4172372Y-5203222D01*
X4172372Y-5203222D02*
X4181896Y-5193698D01*
X4181896Y-5193698D02*
X4200944Y-5184174D01*
X4353325Y-5365126D02*
X4362849Y-5374650D01*
X4362849Y-5374650D02*
X4353325Y-5384174D01*
X4353325Y-5384174D02*
X4343801Y-5374650D01*
X4343801Y-5374650D02*
X4353325Y-5365126D01*
X4353325Y-5365126D02*
X4353325Y-5384174D01*
X4553325Y-5384174D02*
X4439039Y-5384174D01*
X4496182Y-5384174D02*
X4496182Y-5184174D01*
X4496182Y-5184174D02*
X4477134Y-5212746D01*
X4477134Y-5212746D02*
X4458087Y-5231793D01*
X4458087Y-5231793D02*
X4439039Y-5241317D01*
X4743801Y-5384174D02*
X4629515Y-5384174D01*
X4686658Y-5384174D02*
X4686658Y-5184174D01*
X4686658Y-5184174D02*
X4667611Y-5212746D01*
X4667611Y-5212746D02*
X4648563Y-5231793D01*
X4648563Y-5231793D02*
X4629515Y-5241317D01*
X4858087Y-5269888D02*
X4839039Y-5260365D01*
X4839039Y-5260365D02*
X4829515Y-5250841D01*
X4829515Y-5250841D02*
X4819992Y-5231793D01*
X4819992Y-5231793D02*
X4819992Y-5222269D01*
X4819992Y-5222269D02*
X4829515Y-5203222D01*
X4829515Y-5203222D02*
X4839039Y-5193698D01*
X4839039Y-5193698D02*
X4858087Y-5184174D01*
X4858087Y-5184174D02*
X4896182Y-5184174D01*
X4896182Y-5184174D02*
X4915230Y-5193698D01*
X4915230Y-5193698D02*
X4924753Y-5203222D01*
X4924753Y-5203222D02*
X4934277Y-5222269D01*
X4934277Y-5222269D02*
X4934277Y-5231793D01*
X4934277Y-5231793D02*
X4924753Y-5250841D01*
X4924753Y-5250841D02*
X4915230Y-5260365D01*
X4915230Y-5260365D02*
X4896182Y-5269888D01*
X4896182Y-5269888D02*
X4858087Y-5269888D01*
X4858087Y-5269888D02*
X4839039Y-5279412D01*
X4839039Y-5279412D02*
X4829515Y-5288936D01*
X4829515Y-5288936D02*
X4819992Y-5307984D01*
X4819992Y-5307984D02*
X4819992Y-5346079D01*
X4819992Y-5346079D02*
X4829515Y-5365126D01*
X4829515Y-5365126D02*
X4839039Y-5374650D01*
X4839039Y-5374650D02*
X4858087Y-5384174D01*
X4858087Y-5384174D02*
X4896182Y-5384174D01*
X4896182Y-5384174D02*
X4915230Y-5374650D01*
X4915230Y-5374650D02*
X4924753Y-5365126D01*
X4924753Y-5365126D02*
X4934277Y-5346079D01*
X4934277Y-5346079D02*
X4934277Y-5307984D01*
X4934277Y-5307984D02*
X4924753Y-5288936D01*
X4924753Y-5288936D02*
X4915230Y-5279412D01*
X4915230Y-5279412D02*
X4896182Y-5269888D01*
X5124753Y-5384174D02*
X5010468Y-5384174D01*
X5067611Y-5384174D02*
X5067611Y-5184174D01*
X5067611Y-5184174D02*
X5048563Y-5212746D01*
X5048563Y-5212746D02*
X5029515Y-5231793D01*
X5029515Y-5231793D02*
X5010468Y-5241317D01*
X5200944Y-5184174D02*
X5200944Y-5222269D01*
X5277134Y-5184174D02*
X5277134Y-5222269D01*
X5572373Y-5460365D02*
X5562849Y-5450841D01*
X5562849Y-5450841D02*
X5543801Y-5422269D01*
X5543801Y-5422269D02*
X5534277Y-5403222D01*
X5534277Y-5403222D02*
X5524754Y-5374650D01*
X5524754Y-5374650D02*
X5515230Y-5327031D01*
X5515230Y-5327031D02*
X5515230Y-5288936D01*
X5515230Y-5288936D02*
X5524754Y-5241317D01*
X5524754Y-5241317D02*
X5534277Y-5212746D01*
X5534277Y-5212746D02*
X5543801Y-5193698D01*
X5543801Y-5193698D02*
X5562849Y-5165126D01*
X5562849Y-5165126D02*
X5572373Y-5155603D01*
X5734277Y-5250841D02*
X5734277Y-5384174D01*
X5686658Y-5174650D02*
X5639039Y-5317507D01*
X5639039Y-5317507D02*
X5762849Y-5317507D01*
X5991420Y-5384174D02*
X5991420Y-5184174D01*
X6077134Y-5384174D02*
X6077134Y-5279412D01*
X6077134Y-5279412D02*
X6067611Y-5260365D01*
X6067611Y-5260365D02*
X6048563Y-5250841D01*
X6048563Y-5250841D02*
X6019992Y-5250841D01*
X6019992Y-5250841D02*
X6000944Y-5260365D01*
X6000944Y-5260365D02*
X5991420Y-5269888D01*
X6200944Y-5384174D02*
X6181896Y-5374650D01*
X6181896Y-5374650D02*
X6172373Y-5365126D01*
X6172373Y-5365126D02*
X6162849Y-5346079D01*
X6162849Y-5346079D02*
X6162849Y-5288936D01*
X6162849Y-5288936D02*
X6172373Y-5269888D01*
X6172373Y-5269888D02*
X6181896Y-5260365D01*
X6181896Y-5260365D02*
X6200944Y-5250841D01*
X6200944Y-5250841D02*
X6229515Y-5250841D01*
X6229515Y-5250841D02*
X6248563Y-5260365D01*
X6248563Y-5260365D02*
X6258087Y-5269888D01*
X6258087Y-5269888D02*
X6267611Y-5288936D01*
X6267611Y-5288936D02*
X6267611Y-5346079D01*
X6267611Y-5346079D02*
X6258087Y-5365126D01*
X6258087Y-5365126D02*
X6248563Y-5374650D01*
X6248563Y-5374650D02*
X6229515Y-5384174D01*
X6229515Y-5384174D02*
X6200944Y-5384174D01*
X6381896Y-5384174D02*
X6362849Y-5374650D01*
X6362849Y-5374650D02*
X6353325Y-5355603D01*
X6353325Y-5355603D02*
X6353325Y-5184174D01*
X6534277Y-5374650D02*
X6515230Y-5384174D01*
X6515230Y-5384174D02*
X6477134Y-5384174D01*
X6477134Y-5384174D02*
X6458087Y-5374650D01*
X6458087Y-5374650D02*
X6448563Y-5355603D01*
X6448563Y-5355603D02*
X6448563Y-5279412D01*
X6448563Y-5279412D02*
X6458087Y-5260365D01*
X6458087Y-5260365D02*
X6477134Y-5250841D01*
X6477134Y-5250841D02*
X6515230Y-5250841D01*
X6515230Y-5250841D02*
X6534277Y-5260365D01*
X6534277Y-5260365D02*
X6543801Y-5279412D01*
X6543801Y-5279412D02*
X6543801Y-5298460D01*
X6543801Y-5298460D02*
X6448563Y-5317507D01*
X6619992Y-5374650D02*
X6639039Y-5384174D01*
X6639039Y-5384174D02*
X6677134Y-5384174D01*
X6677134Y-5384174D02*
X6696182Y-5374650D01*
X6696182Y-5374650D02*
X6705706Y-5355603D01*
X6705706Y-5355603D02*
X6705706Y-5346079D01*
X6705706Y-5346079D02*
X6696182Y-5327031D01*
X6696182Y-5327031D02*
X6677134Y-5317507D01*
X6677134Y-5317507D02*
X6648563Y-5317507D01*
X6648563Y-5317507D02*
X6629515Y-5307984D01*
X6629515Y-5307984D02*
X6619992Y-5288936D01*
X6619992Y-5288936D02*
X6619992Y-5279412D01*
X6619992Y-5279412D02*
X6629515Y-5260365D01*
X6629515Y-5260365D02*
X6648563Y-5250841D01*
X6648563Y-5250841D02*
X6677134Y-5250841D01*
X6677134Y-5250841D02*
X6696182Y-5260365D01*
X6772373Y-5460365D02*
X6781896Y-5450841D01*
X6781896Y-5450841D02*
X6800944Y-5422269D01*
X6800944Y-5422269D02*
X6810468Y-5403222D01*
X6810468Y-5403222D02*
X6819992Y-5374650D01*
X6819992Y-5374650D02*
X6829515Y-5327031D01*
X6829515Y-5327031D02*
X6829515Y-5288936D01*
X6829515Y-5288936D02*
X6819992Y-5241317D01*
X6819992Y-5241317D02*
X6810468Y-5212746D01*
X6810468Y-5212746D02*
X6800944Y-5193698D01*
X6800944Y-5193698D02*
X6781896Y-5165126D01*
X6781896Y-5165126D02*
X6772373Y-5155603D01*
X7134277Y-5460365D02*
X7124754Y-5450841D01*
X7124754Y-5450841D02*
X7105706Y-5422269D01*
X7105706Y-5422269D02*
X7096182Y-5403222D01*
X7096182Y-5403222D02*
X7086658Y-5374650D01*
X7086658Y-5374650D02*
X7077135Y-5327031D01*
X7077135Y-5327031D02*
X7077135Y-5288936D01*
X7077135Y-5288936D02*
X7086658Y-5241317D01*
X7086658Y-5241317D02*
X7096182Y-5212746D01*
X7096182Y-5212746D02*
X7105706Y-5193698D01*
X7105706Y-5193698D02*
X7124754Y-5165126D01*
X7124754Y-5165126D02*
X7134277Y-5155603D01*
X7210468Y-5250841D02*
X7210468Y-5384174D01*
X7210468Y-5269888D02*
X7219992Y-5260365D01*
X7219992Y-5260365D02*
X7239039Y-5250841D01*
X7239039Y-5250841D02*
X7267611Y-5250841D01*
X7267611Y-5250841D02*
X7286658Y-5260365D01*
X7286658Y-5260365D02*
X7296182Y-5279412D01*
X7296182Y-5279412D02*
X7296182Y-5384174D01*
X7419992Y-5384174D02*
X7400944Y-5374650D01*
X7400944Y-5374650D02*
X7391420Y-5365126D01*
X7391420Y-5365126D02*
X7381896Y-5346079D01*
X7381896Y-5346079D02*
X7381896Y-5288936D01*
X7381896Y-5288936D02*
X7391420Y-5269888D01*
X7391420Y-5269888D02*
X7400944Y-5260365D01*
X7400944Y-5260365D02*
X7419992Y-5250841D01*
X7419992Y-5250841D02*
X7448563Y-5250841D01*
X7448563Y-5250841D02*
X7467611Y-5260365D01*
X7467611Y-5260365D02*
X7477135Y-5269888D01*
X7477135Y-5269888D02*
X7486658Y-5288936D01*
X7486658Y-5288936D02*
X7486658Y-5346079D01*
X7486658Y-5346079D02*
X7477135Y-5365126D01*
X7477135Y-5365126D02*
X7467611Y-5374650D01*
X7467611Y-5374650D02*
X7448563Y-5384174D01*
X7448563Y-5384174D02*
X7419992Y-5384174D01*
X7543801Y-5250841D02*
X7619992Y-5250841D01*
X7572373Y-5184174D02*
X7572373Y-5355603D01*
X7572373Y-5355603D02*
X7581896Y-5374650D01*
X7581896Y-5374650D02*
X7600944Y-5384174D01*
X7600944Y-5384174D02*
X7619992Y-5384174D01*
X7839039Y-5250841D02*
X7839039Y-5450841D01*
X7839039Y-5260365D02*
X7858087Y-5250841D01*
X7858087Y-5250841D02*
X7896182Y-5250841D01*
X7896182Y-5250841D02*
X7915230Y-5260365D01*
X7915230Y-5260365D02*
X7924754Y-5269888D01*
X7924754Y-5269888D02*
X7934277Y-5288936D01*
X7934277Y-5288936D02*
X7934277Y-5346079D01*
X7934277Y-5346079D02*
X7924754Y-5365126D01*
X7924754Y-5365126D02*
X7915230Y-5374650D01*
X7915230Y-5374650D02*
X7896182Y-5384174D01*
X7896182Y-5384174D02*
X7858087Y-5384174D01*
X7858087Y-5384174D02*
X7839039Y-5374650D01*
X8048563Y-5384174D02*
X8029516Y-5374650D01*
X8029516Y-5374650D02*
X8019992Y-5355603D01*
X8019992Y-5355603D02*
X8019992Y-5184174D01*
X8210468Y-5384174D02*
X8210468Y-5279412D01*
X8210468Y-5279412D02*
X8200944Y-5260365D01*
X8200944Y-5260365D02*
X8181897Y-5250841D01*
X8181897Y-5250841D02*
X8143801Y-5250841D01*
X8143801Y-5250841D02*
X8124754Y-5260365D01*
X8210468Y-5374650D02*
X8191420Y-5384174D01*
X8191420Y-5384174D02*
X8143801Y-5384174D01*
X8143801Y-5384174D02*
X8124754Y-5374650D01*
X8124754Y-5374650D02*
X8115230Y-5355603D01*
X8115230Y-5355603D02*
X8115230Y-5336555D01*
X8115230Y-5336555D02*
X8124754Y-5317507D01*
X8124754Y-5317507D02*
X8143801Y-5307984D01*
X8143801Y-5307984D02*
X8191420Y-5307984D01*
X8191420Y-5307984D02*
X8210468Y-5298460D01*
X8277135Y-5250841D02*
X8353325Y-5250841D01*
X8305706Y-5184174D02*
X8305706Y-5355603D01*
X8305706Y-5355603D02*
X8315230Y-5374650D01*
X8315230Y-5374650D02*
X8334277Y-5384174D01*
X8334277Y-5384174D02*
X8353325Y-5384174D01*
X8496182Y-5374650D02*
X8477135Y-5384174D01*
X8477135Y-5384174D02*
X8439039Y-5384174D01*
X8439039Y-5384174D02*
X8419992Y-5374650D01*
X8419992Y-5374650D02*
X8410468Y-5355603D01*
X8410468Y-5355603D02*
X8410468Y-5279412D01*
X8410468Y-5279412D02*
X8419992Y-5260365D01*
X8419992Y-5260365D02*
X8439039Y-5250841D01*
X8439039Y-5250841D02*
X8477135Y-5250841D01*
X8477135Y-5250841D02*
X8496182Y-5260365D01*
X8496182Y-5260365D02*
X8505706Y-5279412D01*
X8505706Y-5279412D02*
X8505706Y-5298460D01*
X8505706Y-5298460D02*
X8410468Y-5317507D01*
X8677135Y-5384174D02*
X8677135Y-5184174D01*
X8677135Y-5374650D02*
X8658087Y-5384174D01*
X8658087Y-5384174D02*
X8619992Y-5384174D01*
X8619992Y-5384174D02*
X8600944Y-5374650D01*
X8600944Y-5374650D02*
X8591420Y-5365126D01*
X8591420Y-5365126D02*
X8581897Y-5346079D01*
X8581897Y-5346079D02*
X8581897Y-5288936D01*
X8581897Y-5288936D02*
X8591420Y-5269888D01*
X8591420Y-5269888D02*
X8600944Y-5260365D01*
X8600944Y-5260365D02*
X8619992Y-5250841D01*
X8619992Y-5250841D02*
X8658087Y-5250841D01*
X8658087Y-5250841D02*
X8677135Y-5260365D01*
X8753325Y-5460365D02*
X8762849Y-5450841D01*
X8762849Y-5450841D02*
X8781897Y-5422269D01*
X8781897Y-5422269D02*
X8791420Y-5403222D01*
X8791420Y-5403222D02*
X8800944Y-5374650D01*
X8800944Y-5374650D02*
X8810468Y-5327031D01*
X8810468Y-5327031D02*
X8810468Y-5288936D01*
X8810468Y-5288936D02*
X8800944Y-5241317D01*
X8800944Y-5241317D02*
X8791420Y-5212746D01*
X8791420Y-5212746D02*
X8781897Y-5193698D01*
X8781897Y-5193698D02*
X8762849Y-5165126D01*
X8762849Y-5165126D02*
X8753325Y-5155603D01*
M02*
